<?xml version="1.0" encoding="UTF-8" standalone="no"?>
<svg
   xmlns:dc="http://purl.org/dc/elements/1.1/"
   xmlns:cc="http://creativecommons.org/ns#"
   xmlns:rdf="http://www.w3.org/1999/02/22-rdf-syntax-ns#"
   xmlns:svg="http://www.w3.org/2000/svg"
   xmlns="http://www.w3.org/2000/svg"
   xmlns:sodipodi="http://sodipodi.sourceforge.net/DTD/sodipodi-0.dtd"
   xmlns:inkscape="http://www.inkscape.org/namespaces/inkscape"
   version="1.1"
   id="Layer_1"
   x="0px"
   y="0px"
   width="1000"
   height="1024"
   viewBox="0 0 1000 1024"
   enable-background="new 0 0 512 512"
   xml:space="preserve"
   inkscape:version="0.48.0 r9654"
   sodipodi:docname="alefhebrew-x5d0.svg"><title
   id="title3743">Sinai 357</title><metadata
   id="metadata72"><rdf:RDF><cc:Work
       rdf:about=""><dc:format>image/svg+xml</dc:format><dc:type
         rdf:resource="http://purl.org/dc/dcmitype/StillImage" /><dc:title>Sinai 357</dc:title><dc:date>2017</dc:date><dc:creator><cc:Agent><dc:title>Celeste Claire Horner</dc:title></cc:Agent></dc:creator><dc:publisher><cc:Agent><dc:title>beitdina.net</dc:title></cc:Agent></dc:publisher></cc:Work></rdf:RDF></metadata><defs
   id="defs70" /><sodipodi:namedview
   pagecolor="#ffffff"
   bordercolor="#666666"
   borderopacity="1"
   objecttolerance="10"
   gridtolerance="10"
   guidetolerance="10"
   inkscape:pageopacity="0"
   inkscape:pageshadow="2"
   inkscape:window-width="1152"
   inkscape:window-height="814"
   id="namedview68"
   showgrid="false"
   inkscape:zoom="0.36045872"
   inkscape:cx="-192.36575"
   inkscape:cy="592.53352"
   inkscape:window-x="-8"
   inkscape:window-y="-8"
   inkscape:window-maximized="1"
   inkscape:current-layer="Layer_1" />
   
	<g
   id="Grid"
   transform="matrix(1.9502951,0,0,1.9942504,1.456297,2.4526952)">
		<rect
   x="0"
   stroke-miterlimit="10"
   width="512"
   height="512"
   id="rect4"
   y="0"
   style="fill:none;stroke:#a9ccdb;stroke-miterlimit:10" />
		<line
   stroke-miterlimit="10"
   x1="0"
   y1="32"
   x2="512"
   y2="32"
   id="line6"
   style="fill:none;stroke:#a9ccdb;stroke-miterlimit:10" />
		<line
   stroke-miterlimit="10"
   x1="0"
   y1="64"
   x2="512"
   y2="64"
   id="line8"
   style="fill:none;stroke:#a9ccdb;stroke-miterlimit:10" />
		<line
   stroke-miterlimit="10"
   x1="0"
   y1="96"
   x2="512"
   y2="96"
   id="line10"
   style="fill:none;stroke:#a9ccdb;stroke-miterlimit:10" />
		<line
   stroke-miterlimit="10"
   x1="0"
   y1="128"
   x2="512"
   y2="128"
   id="line12"
   style="fill:none;stroke:#a9ccdb;stroke-miterlimit:10" />
		<line
   stroke-miterlimit="10"
   x1="0"
   y1="160"
   x2="512"
   y2="160"
   id="line14"
   style="fill:none;stroke:#a9ccdb;stroke-miterlimit:10" />
		<line
   stroke-miterlimit="10"
   x1="0"
   y1="192"
   x2="512"
   y2="192"
   id="line16"
   style="fill:none;stroke:#a9ccdb;stroke-miterlimit:10" />
		<line
   stroke-miterlimit="10"
   x1="0"
   y1="224"
   x2="512"
   y2="224"
   id="line18"
   style="fill:none;stroke:#a9ccdb;stroke-miterlimit:10" />
		<line
   stroke-miterlimit="10"
   x1="0"
   y1="256"
   x2="512"
   y2="256"
   id="line20"
   style="fill:none;stroke:#a9ccdb;stroke-miterlimit:10" />
		<line
   stroke-miterlimit="10"
   x1="0"
   y1="288"
   x2="512"
   y2="288"
   id="line22"
   style="fill:none;stroke:#a9ccdb;stroke-miterlimit:10" />
		<line
   stroke-miterlimit="10"
   x1="0"
   y1="320"
   x2="512"
   y2="320"
   id="line24"
   style="fill:none;stroke:#a9ccdb;stroke-miterlimit:10" />
		<line
   stroke-miterlimit="10"
   x1="0"
   y1="352"
   x2="512"
   y2="352"
   id="line26"
   style="fill:none;stroke:#a9ccdb;stroke-miterlimit:10" />
		<line
   stroke-miterlimit="10"
   x1="0"
   y1="384"
   x2="512"
   y2="384"
   id="line28"
   style="fill:none;stroke:#a9ccdb;stroke-miterlimit:10" />
		<line
   stroke-miterlimit="10"
   x1="0"
   y1="416"
   x2="512"
   y2="416"
   id="line30"
   style="fill:none;stroke:#a9ccdb;stroke-miterlimit:10" />
		<line
   stroke-miterlimit="10"
   x1="0"
   y1="448"
   x2="512"
   y2="448"
   id="line32"
   style="fill:none;stroke:#ff0000;stroke-miterlimit:10" />
		<line
   stroke-miterlimit="10"
   x1="0"
   y1="480"
   x2="512"
   y2="480"
   id="line34"
   style="fill:none;stroke:#a9ccdb;stroke-miterlimit:10" />
		<line
   stroke-miterlimit="10"
   x1="32"
   y1="0"
   x2="32"
   y2="512"
   id="line36"
   style="fill:none;stroke:#a9ccdb;stroke-miterlimit:10" />
		<line
   stroke-miterlimit="10"
   x1="64"
   y1="0"
   x2="64"
   y2="512"
   id="line38"
   style="fill:none;stroke:#a9ccdb;stroke-miterlimit:10" />
		<line
   stroke-miterlimit="10"
   x1="96"
   y1="0"
   x2="96"
   y2="512"
   id="line40"
   style="fill:none;stroke:#a9ccdb;stroke-miterlimit:10" />
		<line
   stroke-miterlimit="10"
   x1="128"
   y1="0"
   x2="128"
   y2="512"
   id="line42"
   style="fill:none;stroke:#a9ccdb;stroke-miterlimit:10" />
		<line
   stroke-miterlimit="10"
   x1="160"
   y1="0"
   x2="160"
   y2="512"
   id="line44"
   style="fill:none;stroke:#a9ccdb;stroke-miterlimit:10" />
		<line
   stroke-miterlimit="10"
   x1="192"
   y1="0"
   x2="192"
   y2="512"
   id="line46"
   style="fill:none;stroke:#a9ccdb;stroke-miterlimit:10" />
		<line
   stroke-miterlimit="10"
   x1="224"
   y1="0"
   x2="224"
   y2="512"
   id="line48"
   style="fill:none;stroke:#a9ccdb;stroke-miterlimit:10" />
		<line
   stroke-miterlimit="10"
   x1="256"
   y1="0"
   x2="256"
   y2="512"
   id="line50"
   style="fill:none;stroke:#a9ccdb;stroke-miterlimit:10" />
		<line
   stroke-miterlimit="10"
   x1="288"
   y1="0"
   x2="288"
   y2="512"
   id="line52"
   style="fill:none;stroke:#a9ccdb;stroke-miterlimit:10" />
		<line
   stroke-miterlimit="10"
   x1="320"
   y1="0"
   x2="320"
   y2="512"
   id="line54"
   style="fill:none;stroke:#a9ccdb;stroke-miterlimit:10" />
		<line
   stroke-miterlimit="10"
   x1="352"
   y1="0"
   x2="352"
   y2="512"
   id="line56"
   style="fill:none;stroke:#a9ccdb;stroke-miterlimit:10" />
		<line
   stroke-miterlimit="10"
   x1="384"
   y1="0"
   x2="384"
   y2="512"
   id="line58"
   style="fill:none;stroke:#a9ccdb;stroke-miterlimit:10" />
		<line
   stroke-miterlimit="10"
   x1="416"
   y1="0"
   x2="416"
   y2="512"
   id="line60"
   style="fill:none;stroke:#a9ccdb;stroke-miterlimit:10" />
		<line
   stroke-miterlimit="10"
   x1="448"
   y1="0"
   x2="448"
   y2="512"
   id="line62"
   style="fill:none;stroke:#a9ccdb;stroke-miterlimit:10" />
		<line
   stroke-miterlimit="10"
   x1="480"
   y1="0"
   x2="480"
   y2="512"
   id="line64"
   style="fill:none;stroke:#a9ccdb;stroke-miterlimit:10" />
	</g>
	
<path
   sodipodi:nodetypes="cccccccccccscccccscscsccscccsccsccccssccc"
   inkscape:connector-curvature="0"
   id="path3743"
   d="m 355.44343,613.10204 c -6.8185,7.77054 -13.00616,14.32116 -15.01156,14.72149 -13.06819,-0.21816 -17.97309,-6.87926 -26.35492,-15.33372 -22.14463,-29.07034 -92.11679,-144.33499 -94.17186,-183.62472 -3.07095,-44.27523 -6.48566,-77.48831 -22.09533,-108.94399 -13.57099,-24.4662 -41.09923,-51.03639 -68.7843,-41.6504 -20.99518,7.37327 -38.088784,30.75252 -48.172744,42.8992 -11.539565,20.04286 -13.067605,40.38522 -13.389585,62.3795 -1.809263,46.66047 5.774286,89.07001 19.614551,128.18031 10.767497,28.38911 24.668648,55.83943 40.275168,82.41033 59.04799,84.96993 114.62232,183.11492 188.18912,251.65713 17.92224,17.00377 38.624,33.93128 60.60397,43.35545 19.72915,8.45912 40.48813,10.87294 61.1912,1.87042 23.00939,-11.89715 64.94496,-37.6797 57.13206,-64.44544 -7.90805,-22.15951 -70.77005,-66.84324 -63.20768,-88.74476 8.25423,-1.2144 63.30992,-64.75611 71.03414,-68.69392 35.86917,-34.64828 55.29065,-66.7018 75.65069,-91.07632 16.11311,-22.92747 31.21758,-47.08195 42.95393,-54.591 3.24697,-2.07745 6.23615,-2.88085 8.91757,-2.03173 11.55799,12.18447 20.56968,22.76513 29.1376,32.86781 14.53858,17.14284 13.92821,13.48968 36.18397,33.38046 13.11075,15.30493 61.84808,60.98857 69.6323,76.11421 10.05131,19.53086 8.34087,39.55399 16.28155,61.72665 14.84552,31.79626 47.58225,61.93213 65.70477,84.32571 33.72224,36.0508 69.29898,26.09012 94.3371,3.91788 18.53938,-16.41735 28.96529,-43.27828 22.78795,-72.41256 -9.62918,-42.60648 -48.21088,-83.0344 -68.01363,-113.21502 -15.20511,-20.98708 -36.14108,-10.28914 -55.02509,-30.18895 -23.71577,-28.19958 -46.00063,-55.69888 -64.44068,-84.98394 -14.96708,-23.76955 -27.40123,-48.71555 -36.01168,-76.1673 -0.79926,-2.72695 -1.48444,-5.43767 -2.03877,-8.13097 -2.85552,-27.12195 -3.18199,-63.42334 -0.89029,-91.11248 0.56523,-6.82934 -0.55262,-9.45006 0.63003,-15.55971 3.15196,-16.35192 11.94661,-44.95571 13.32444,-65.9313 1.21856,-9.07145 0.10927,-15.23824 -2.57811,-20.3947 -15.44739,-19.92622 -39.06079,-42.72823 -59.04547,-55.28931 -6.90242,-4.18143 -12.98979,-6.77612 -18.37373,-8.03517 -17.80086,-4.16277 -27.91227,6.27509 -34.36925,22.23868 -7.33347,18.13055 -9.95304,43.38882 -13.77002,62.47998 -0.74566,4.26341 -1.92373,8.26752 -3.43252,12.0671 -78.6668,119.93491 -179.44043,246.55287 -264.40489,343.9651 z"
   style="fill:#58211b;fill-opacity:1" />
 </svg>