<?xml version="1.0" encoding="UTF-8" standalone="no"?>
<svg
   xmlns:dc="http://purl.org/dc/elements/1.1/"
   xmlns:cc="http://creativecommons.org/ns#"
   xmlns:rdf="http://www.w3.org/1999/02/22-rdf-syntax-ns#"
   xmlns:svg="http://www.w3.org/2000/svg"
   xmlns="http://www.w3.org/2000/svg"
   xmlns:sodipodi="http://sodipodi.sourceforge.net/DTD/sodipodi-0.dtd"
   xmlns:inkscape="http://www.inkscape.org/namespaces/inkscape"
   version="1.1"
   id="Layer_1"
   x="0px"
   y="0px"
   width="1024"
   height="1024"
   viewBox="0 0 1024 1024"
   enable-background="new 0 0 512 512"
   xml:space="preserve"
   inkscape:version="0.48.0 r9654"
   sodipodi:docname="ayinhebrew-x5e2.svg"><title
   id="title3743">Sinai 357</title><metadata
   id="metadata72"><rdf:RDF><cc:Work
       rdf:about=""><dc:format>image/svg+xml</dc:format><dc:type
         rdf:resource="http://purl.org/dc/dcmitype/StillImage" /><dc:title>Sinai 357</dc:title><dc:date>2017</dc:date><dc:creator><cc:Agent><dc:title>Celeste Claire Horner</dc:title></cc:Agent></dc:creator><dc:publisher><cc:Agent><dc:title>beitdina.net</dc:title></cc:Agent></dc:publisher></cc:Work></rdf:RDF></metadata><defs
   id="defs70" /><sodipodi:namedview
   pagecolor="#ffffff"
   bordercolor="#666666"
   borderopacity="1"
   objecttolerance="10"
   gridtolerance="10"
   guidetolerance="10"
   inkscape:pageopacity="0"
   inkscape:pageshadow="2"
   inkscape:window-width="1152"
   inkscape:window-height="814"
   id="namedview68"
   showgrid="false"
   inkscape:zoom="0.31234964"
   inkscape:cx="-15.418186"
   inkscape:cy="540.07898"
   inkscape:window-x="-8"
   inkscape:window-y="-8"
   inkscape:window-maximized="1"
   inkscape:current-layer="Layer_1"
   showguides="true"
   inkscape:guide-bbox="true" />
   
	<g
   id="Grid"
   transform="matrix(2.003984,0,0,1.9949797,0.501992,2.0728936)">
		<rect
   x="0"
   stroke-miterlimit="10"
   width="512"
   height="512"
   id="rect4"
   y="0"
   style="fill:none;stroke:#a9ccdb;stroke-miterlimit:10" />
		<line
   stroke-miterlimit="10"
   x1="0"
   y1="32"
   x2="512"
   y2="32"
   id="line6"
   style="fill:none;stroke:#a9ccdb;stroke-miterlimit:10" />
		<line
   stroke-miterlimit="10"
   x1="0"
   y1="64"
   x2="512"
   y2="64"
   id="line8"
   style="fill:none;stroke:#a9ccdb;stroke-miterlimit:10" />
		<line
   stroke-miterlimit="10"
   x1="0"
   y1="96"
   x2="512"
   y2="96"
   id="line10"
   style="fill:none;stroke:#a9ccdb;stroke-miterlimit:10" />
		<line
   stroke-miterlimit="10"
   x1="0"
   y1="128"
   x2="512"
   y2="128"
   id="line12"
   style="fill:none;stroke:#a9ccdb;stroke-miterlimit:10" />
		<line
   stroke-miterlimit="10"
   x1="0"
   y1="160"
   x2="512"
   y2="160"
   id="line14"
   style="fill:none;stroke:#a9ccdb;stroke-miterlimit:10" />
		<line
   stroke-miterlimit="10"
   x1="0"
   y1="192"
   x2="512"
   y2="192"
   id="line16"
   style="fill:none;stroke:#a9ccdb;stroke-miterlimit:10" />
		<line
   stroke-miterlimit="10"
   x1="0"
   y1="224"
   x2="512"
   y2="224"
   id="line18"
   style="fill:none;stroke:#a9ccdb;stroke-miterlimit:10" />
		<line
   stroke-miterlimit="10"
   x1="0"
   y1="256"
   x2="512"
   y2="256"
   id="line20"
   style="fill:none;stroke:#a9ccdb;stroke-miterlimit:10" />
		<line
   stroke-miterlimit="10"
   x1="0"
   y1="288"
   x2="512"
   y2="288"
   id="line22"
   style="fill:none;stroke:#a9ccdb;stroke-miterlimit:10" />
		<line
   stroke-miterlimit="10"
   x1="0"
   y1="320"
   x2="512"
   y2="320"
   id="line24"
   style="fill:none;stroke:#a9ccdb;stroke-miterlimit:10" />
		<line
   stroke-miterlimit="10"
   x1="0"
   y1="352"
   x2="512"
   y2="352"
   id="line26"
   style="fill:none;stroke:#a9ccdb;stroke-miterlimit:10" />
		<line
   stroke-miterlimit="10"
   x1="0"
   y1="384"
   x2="512"
   y2="384"
   id="line28"
   style="fill:none;stroke:#a9ccdb;stroke-miterlimit:10" />
		<line
   stroke-miterlimit="10"
   x1="0"
   y1="416"
   x2="512"
   y2="416"
   id="line30"
   style="fill:none;stroke:#a9ccdb;stroke-miterlimit:10" />
		<line
   stroke-miterlimit="10"
   x1="0"
   y1="448"
   x2="512"
   y2="448"
   id="line32"
   style="fill:none;stroke:#ff0000;stroke-miterlimit:10" />
		<line
   stroke-miterlimit="10"
   x1="0"
   y1="480"
   x2="512"
   y2="480"
   id="line34"
   style="fill:none;stroke:#a9ccdb;stroke-miterlimit:10" />
		<line
   stroke-miterlimit="10"
   x1="32"
   y1="0"
   x2="32"
   y2="512"
   id="line36"
   style="fill:none;stroke:#a9ccdb;stroke-miterlimit:10" />
		<line
   stroke-miterlimit="10"
   x1="64"
   y1="0"
   x2="64"
   y2="512"
   id="line38"
   style="fill:none;stroke:#a9ccdb;stroke-miterlimit:10" />
		<line
   stroke-miterlimit="10"
   x1="96"
   y1="0"
   x2="96"
   y2="512"
   id="line40"
   style="fill:none;stroke:#a9ccdb;stroke-miterlimit:10" />
		<line
   stroke-miterlimit="10"
   x1="128"
   y1="0"
   x2="128"
   y2="512"
   id="line42"
   style="fill:none;stroke:#a9ccdb;stroke-miterlimit:10" />
		<line
   stroke-miterlimit="10"
   x1="160"
   y1="0"
   x2="160"
   y2="512"
   id="line44"
   style="fill:none;stroke:#a9ccdb;stroke-miterlimit:10" />
		<line
   stroke-miterlimit="10"
   x1="192"
   y1="0"
   x2="192"
   y2="512"
   id="line46"
   style="fill:none;stroke:#a9ccdb;stroke-miterlimit:10" />
		<line
   stroke-miterlimit="10"
   x1="224"
   y1="0"
   x2="224"
   y2="512"
   id="line48"
   style="fill:none;stroke:#a9ccdb;stroke-miterlimit:10" />
		<line
   stroke-miterlimit="10"
   x1="256"
   y1="0"
   x2="256"
   y2="512"
   id="line50"
   style="fill:none;stroke:#a9ccdb;stroke-miterlimit:10" />
		<line
   stroke-miterlimit="10"
   x1="288"
   y1="0"
   x2="288"
   y2="512"
   id="line52"
   style="fill:none;stroke:#a9ccdb;stroke-miterlimit:10" />
		<line
   stroke-miterlimit="10"
   x1="320"
   y1="0"
   x2="320"
   y2="512"
   id="line54"
   style="fill:none;stroke:#a9ccdb;stroke-miterlimit:10" />
		<line
   stroke-miterlimit="10"
   x1="352"
   y1="0"
   x2="352"
   y2="512"
   id="line56"
   style="fill:none;stroke:#a9ccdb;stroke-miterlimit:10" />
		<line
   stroke-miterlimit="10"
   x1="384"
   y1="0"
   x2="384"
   y2="512"
   id="line58"
   style="fill:none;stroke:#a9ccdb;stroke-miterlimit:10" />
		<line
   stroke-miterlimit="10"
   x1="416"
   y1="0"
   x2="416"
   y2="512"
   id="line60"
   style="fill:none;stroke:#a9ccdb;stroke-miterlimit:10" />
		<line
   stroke-miterlimit="10"
   x1="448"
   y1="0"
   x2="448"
   y2="512"
   id="line62"
   style="fill:none;stroke:#a9ccdb;stroke-miterlimit:10" />
		<line
   stroke-miterlimit="10"
   x1="480"
   y1="0"
   x2="480"
   y2="512"
   id="line64"
   style="fill:none;stroke:#a9ccdb;stroke-miterlimit:10" />
	</g>
	
<path
   sodipodi:nodetypes="ccccscccccscccscscccccccsscccsccssccscscccscccc"
   inkscape:connector-curvature="0"
   id="path3841"
   d="m 269.04463,147.58052 c -5.63244,20.8141 -5.42476,9.74501 3.74069,25.77504 15.29079,16.23723 37.07408,41.71807 57.07102,47.81753 2.38071,0.24223 24.52759,9.49401 25.74307,10.30849 -10.15321,9.58849 -15.94906,22.92251 -17.23406,35.28922 -1.32575,12.7589 2.00914,24.53974 0.99929,33.52567 -2.51378,60.84054 -22.947,97.92014 -31.12485,157.57512 -4.95628,22.8715 -12.58718,41.52743 -12.94371,62.3164 -4.12049,43.74308 2.58078,68.49788 -25.95622,85.08526 -34.54987,24.52651 -33.45972,-23.54191 -53.81804,-37.17009 -45.36184,-17.56991 -77.49192,-2.21566 -103.58641,17.40651 -9.99865,7.51864 -19.967072,16.55002 -30.96604,26.1611 -37.05159,34.10398 -35.84449,62.7623 -25.9125,104.54826 6.56143,28.22422 26.85993,48.4167 48.91798,69.89431 14.91295,15.58459 38.92181,43.76811 58.8744,53.85014 8.28396,4.18589 16.72981,8.51408 25.27112,12.76123 65.43568,27.77333 109.96799,18.8254 143.41939,-9.55509 36.62566,-31.07354 59.96768,-85.44256 82.91845,-140.41494 16.62736,-40.1843 29.97628,-80.69023 36.88783,-122.05407 4.19634,-22.17244 4.86621,-45.54806 5.18814,-67.88898 5.8466,-66.29354 -3.45524,-139.65377 3.35018,-198.584 2.24439,-13.55009 6.80988,-26.13256 5.32819,-40.07194 1.02737,-12.80253 -15.5679,-25.1711 -11.44427,-30.93964 45.79943,-3.12479 65.55142,-4.2167 107.3117,13.92788 6.47238,2.36565 12.15249,5.08819 17.13657,8.20442 15.92685,9.95803 24.74613,23.93623 29.59777,43.13548 1.40863,5.57434 2.4828,11.58879 3.29936,18.07277 2.37865,42.10559 -15.84139,97.60113 -15.39327,134.06736 0.23697,21.75741 0.47956,41.38422 -21.41696,69.92561 -28.8988,33.34654 -48.61366,46.46679 -63.46774,97.08998 -4.43814,15.12533 -7.60742,70.56556 -12.94559,92.81116 -27.97178,29.1277 -25.99959,41.63262 -24.96156,71.30178 0.34811,14.65575 26.11872,39.69741 32.56434,47.47203 13.77278,16.61258 48.0627,28.08377 85.63997,28.83873 32.29777,0.64889 69.74786,-21.91286 83.0964,-39.06468 23.22983,-44.24532 6.88799,-92.4342 16.80915,-147.37998 3.11652,-36.40466 9.23504,-66.71678 24.39061,-99.91644 13.17033,-28.85084 26.43905,-62.43599 33.94587,-89.49414 1.41103,-11.31251 5.67787,-24.53167 6.8972,-36.47954 5.9622,-58.42197 5.83845,-121.01532 -3.14028,-172.06723 -2.36825,-31.85954 -16.05863,-48.97553 -32.05439,-62.25892 -8.71828,-8.05854 -18.05444,-9.35304 -27.56156,-13.88811 -18.12293,-7.05662 -35.66143,-15.96006 -52.98454,-24.47752 C 620.33532,173.10667 600.43207,163.70127 580.2368,158.35857 541.23467,137.4436 491.4,135.7813 456.57664,128.3605 c -60.51368,-3.1362 -73.58736,2.2572 -130.1334,3.0301 -25.1751,0.4185 -45.97214,4.5257 -57.39861,16.18992 z"
   style="fill:#00c3e3;fill-opacity:0.79565214" />
	 
</svg>