<?xml version="1.0" encoding="UTF-8" standalone="no"?>
<svg
   xmlns:dc="http://purl.org/dc/elements/1.1/"
   xmlns:cc="http://creativecommons.org/ns#"
   xmlns:rdf="http://www.w3.org/1999/02/22-rdf-syntax-ns#"
   xmlns:svg="http://www.w3.org/2000/svg"
   xmlns="http://www.w3.org/2000/svg"
   xmlns:sodipodi="http://sodipodi.sourceforge.net/DTD/sodipodi-0.dtd"
   xmlns:inkscape="http://www.inkscape.org/namespaces/inkscape"
   version="1.1"
   id="Layer_1"
   x="0px"
   y="0px"
   width="1000"
   height="1000"
   viewBox="0 0 1000 1000"
   enable-background="new 0 0 512 512"
   xml:space="preserve"
   inkscape:version="0.48.0 r9654"
   sodipodi:docname="dalhebrew-x5d3.svg"><title
   id="title3743">Sinai 357</title><metadata
   id="metadata72"><rdf:RDF><cc:Work
       rdf:about=""><dc:format>image/svg+xml</dc:format><dc:type
         rdf:resource="http://purl.org/dc/dcmitype/StillImage" /><dc:title>Sinai 357</dc:title><dc:date>2017</dc:date><dc:creator><cc:Agent><dc:title>Celeste Claire Horner</dc:title></cc:Agent></dc:creator><dc:publisher><cc:Agent><dc:title>beitdina.net</dc:title></cc:Agent></dc:publisher></cc:Work></rdf:RDF></metadata><defs
   id="defs70" /><sodipodi:namedview
   pagecolor="#ffffff"
   bordercolor="#666666"
   borderopacity="1"
   objecttolerance="10"
   gridtolerance="10"
   guidetolerance="10"
   inkscape:pageopacity="0"
   inkscape:pageshadow="2"
   inkscape:window-width="1152"
   inkscape:window-height="814"
   id="namedview68"
   showgrid="false"
   inkscape:zoom="0.22627416"
   inkscape:cx="776.3257"
   inkscape:cy="210.08954"
   inkscape:window-x="-8"
   inkscape:window-y="-8"
   inkscape:window-maximized="1"
   inkscape:current-layer="Layer_1" />
   
	<g
   id="Grid"
   transform="matrix(1.949083,0,0,1.9463791,4.8939593,2.3372608)">
		<rect
   x="0"
   stroke-miterlimit="10"
   width="512"
   height="512"
   id="rect4"
   y="0"
   style="fill:none;stroke:#a9ccdb;stroke-miterlimit:10" />
		<line
   stroke-miterlimit="10"
   x1="0"
   y1="32"
   x2="512"
   y2="32"
   id="line6"
   style="fill:none;stroke:#a9ccdb;stroke-miterlimit:10" />
		<line
   stroke-miterlimit="10"
   x1="0"
   y1="64"
   x2="512"
   y2="64"
   id="line8"
   style="fill:none;stroke:#a9ccdb;stroke-miterlimit:10" />
		<line
   stroke-miterlimit="10"
   x1="0"
   y1="96"
   x2="512"
   y2="96"
   id="line10"
   style="fill:none;stroke:#a9ccdb;stroke-miterlimit:10" />
		<line
   stroke-miterlimit="10"
   x1="0"
   y1="128"
   x2="512"
   y2="128"
   id="line12"
   style="fill:none;stroke:#a9ccdb;stroke-miterlimit:10" />
		<line
   stroke-miterlimit="10"
   x1="0"
   y1="160"
   x2="512"
   y2="160"
   id="line14"
   style="fill:none;stroke:#a9ccdb;stroke-miterlimit:10" />
		<line
   stroke-miterlimit="10"
   x1="0"
   y1="192"
   x2="512"
   y2="192"
   id="line16"
   style="fill:none;stroke:#a9ccdb;stroke-miterlimit:10" />
		<line
   stroke-miterlimit="10"
   x1="0"
   y1="224"
   x2="512"
   y2="224"
   id="line18"
   style="fill:none;stroke:#a9ccdb;stroke-miterlimit:10" />
		<line
   stroke-miterlimit="10"
   x1="0"
   y1="256"
   x2="512"
   y2="256"
   id="line20"
   style="fill:none;stroke:#a9ccdb;stroke-miterlimit:10" />
		<line
   stroke-miterlimit="10"
   x1="0"
   y1="288"
   x2="512"
   y2="288"
   id="line22"
   style="fill:none;stroke:#a9ccdb;stroke-miterlimit:10" />
		<line
   stroke-miterlimit="10"
   x1="0"
   y1="320"
   x2="512"
   y2="320"
   id="line24"
   style="fill:none;stroke:#a9ccdb;stroke-miterlimit:10" />
		<line
   stroke-miterlimit="10"
   x1="0"
   y1="352"
   x2="512"
   y2="352"
   id="line26"
   style="fill:none;stroke:#a9ccdb;stroke-miterlimit:10" />
		<line
   stroke-miterlimit="10"
   x1="0"
   y1="384"
   x2="512"
   y2="384"
   id="line28"
   style="fill:none;stroke:#a9ccdb;stroke-miterlimit:10" />
		<line
   stroke-miterlimit="10"
   x1="0"
   y1="416"
   x2="512"
   y2="416"
   id="line30"
   style="fill:none;stroke:#a9ccdb;stroke-miterlimit:10" />
		<line
   stroke-miterlimit="10"
   x1="0"
   y1="448"
   x2="512"
   y2="448"
   id="line32"
   style="fill:none;stroke:#ff0000;stroke-miterlimit:10" />
		<line
   stroke-miterlimit="10"
   x1="0"
   y1="480"
   x2="512"
   y2="480"
   id="line34"
   style="fill:none;stroke:#a9ccdb;stroke-miterlimit:10" />
		<line
   stroke-miterlimit="10"
   x1="32"
   y1="0"
   x2="32"
   y2="512"
   id="line36"
   style="fill:none;stroke:#a9ccdb;stroke-miterlimit:10" />
		<line
   stroke-miterlimit="10"
   x1="64"
   y1="0"
   x2="64"
   y2="512"
   id="line38"
   style="fill:none;stroke:#a9ccdb;stroke-miterlimit:10" />
		<line
   stroke-miterlimit="10"
   x1="96"
   y1="0"
   x2="96"
   y2="512"
   id="line40"
   style="fill:none;stroke:#a9ccdb;stroke-miterlimit:10" />
		<line
   stroke-miterlimit="10"
   x1="128"
   y1="0"
   x2="128"
   y2="512"
   id="line42"
   style="fill:none;stroke:#a9ccdb;stroke-miterlimit:10" />
		<line
   stroke-miterlimit="10"
   x1="160"
   y1="0"
   x2="160"
   y2="512"
   id="line44"
   style="fill:none;stroke:#a9ccdb;stroke-miterlimit:10" />
		<line
   stroke-miterlimit="10"
   x1="192"
   y1="0"
   x2="192"
   y2="512"
   id="line46"
   style="fill:none;stroke:#a9ccdb;stroke-miterlimit:10" />
		<line
   stroke-miterlimit="10"
   x1="224"
   y1="0"
   x2="224"
   y2="512"
   id="line48"
   style="fill:none;stroke:#a9ccdb;stroke-miterlimit:10" />
		<line
   stroke-miterlimit="10"
   x1="256"
   y1="0"
   x2="256"
   y2="512"
   id="line50"
   style="fill:none;stroke:#a9ccdb;stroke-miterlimit:10" />
		<line
   stroke-miterlimit="10"
   x1="288"
   y1="0"
   x2="288"
   y2="512"
   id="line52"
   style="fill:none;stroke:#a9ccdb;stroke-miterlimit:10" />
		<line
   stroke-miterlimit="10"
   x1="320"
   y1="0"
   x2="320"
   y2="512"
   id="line54"
   style="fill:none;stroke:#a9ccdb;stroke-miterlimit:10" />
		<line
   stroke-miterlimit="10"
   x1="352"
   y1="0"
   x2="352"
   y2="512"
   id="line56"
   style="fill:none;stroke:#a9ccdb;stroke-miterlimit:10" />
		<line
   stroke-miterlimit="10"
   x1="384"
   y1="0"
   x2="384"
   y2="512"
   id="line58"
   style="fill:none;stroke:#a9ccdb;stroke-miterlimit:10" />
		<line
   stroke-miterlimit="10"
   x1="416"
   y1="0"
   x2="416"
   y2="512"
   id="line60"
   style="fill:none;stroke:#a9ccdb;stroke-miterlimit:10" />
		<line
   stroke-miterlimit="10"
   x1="448"
   y1="0"
   x2="448"
   y2="512"
   id="line62"
   style="fill:none;stroke:#a9ccdb;stroke-miterlimit:10" />
		<line
   stroke-miterlimit="10"
   x1="480"
   y1="0"
   x2="480"
   y2="512"
   id="line64"
   style="fill:none;stroke:#a9ccdb;stroke-miterlimit:10" />
	</g>
<path
   style="fill:#5a2309"
   d="m 681.98281,124.94459 c -10.26694,8.20518 -13.0879,30.23144 -13.17047,39.80203 -16.24189,67.77929 -35.07689,129.60061 -53.10692,192.51572 -18.31151,63.91806 -39.75737,138.66234 -64.50622,191.92128 -12.46588,14.67023 -25.08296,33.62833 -39.60627,47.84196 -29.46589,29.28426 -70.53162,12.79631 -106.60665,-0.0929 -52.40144,-15.60126 -104.12692,-32.61431 -151.65815,-50.54845 -39.75859,-14.98499 -79.56876,-29.10569 -117.85699,-31.65575 -10.53866,-1.81407 -21.62984,-2.98138 -31.60446,-4.04513 -9.918462,-1.13814 -22.954682,3.70159 -27.120818,12.19182 -2.683375,6.05377 -3.406918,13.61868 -3.332951,20.56634 -0.390805,7.77361 3.704821,14.11433 5.578461,20.9053 3.586853,10.70748 7.973325,21.6399 11.978953,31.26215 22.535925,54.09281 45.309755,111.3219 32.478025,170.66338 -4.57378,17.80327 -8.50287,37.33076 -14.27774,54.09611 -2.54384,19.45284 -12.826587,35.98109 -18.859726,53.56044 -3.928408,11.626 -5.463877,22.03403 -1.366059,29.59587 9.02769,4.59556 22.566345,6.58974 37.582445,6.7662 8.5556,0.10051 17.59081,-0.38901 26.54457,-1.32366 8.10186,-0.84575 16.13703,-2.05593 23.68979,-3.5232 17.25362,-3.35185 31.98978,-8.04522 39.25283,-12.79984 12.17679,-5.63323 14.24623,-19.94372 18.8675,-30.94523 7.8361,-21.26428 16.70114,-35.09244 15.7272,-58.49988 -1.3149,-14.91133 1.42764,-29.22796 -0.49159,-42.68259 -2.03727,-13.52206 -4.24853,-32.29763 -8.70151,-39.85537 -5.40279,-10.4214 7.07085,-16.69727 12.48025,-23.08995 6.89713,-8.65406 14.58858,-17.01266 22.88665,-22.70124 13.91473,-3.26247 40.55901,7.74811 52.2214,11.81373 26.65748,9.47267 50.22304,16.01217 73.70991,26.01715 25.52412,10.8728 51.72594,26.47642 76.29328,43.8876 16.06162,10.58727 26.84185,17.88796 40.72937,31.28654 7.93401,12.34275 -7.89328,28.88762 -5.89105,40.21914 2.50873,14.19806 19.59109,28.49256 40.07482,36.10104 22.22999,7.16271 54.87245,6.27448 74.99485,-2.47487 34.64486,-15.33875 39.25909,-52.97935 64.18534,-87.80261 4.88108,-11.55818 1.65575,-25.21428 8.40174,-36.36417 6.38512,-9.93493 5.63494,-60.84094 -1.16501,-79.0542 -1.3025,-3.48865 -5.73648,-8.3442 -9.8533,-10.79007 -8.18422,-4.86237 -6.0572,-9.89088 -6.0572,-21.23295 0,-3.79864 2.19324,-13.81156 4.87387,-22.25098 32.95861,-127.47724 38.69968,-176.93028 69.11626,-295.06033 3.0669,-11.95587 5.86395,-23.83315 8.39854,-35.56415 1.74803,-12.73678 12.15271,-46.20605 8.77982,-52.6513 -3.70573,-10.17319 -0.14711,-25.23883 -1.85319,-35.67111 -2.40417,-20.15468 1.34537,-23.0821 -16.22115,-33.09325 -13.78407,-7.82866 -18.61732,-12.58831 -22.91272,-12.58831 -10.11267,-0.66426 -19.17523,-12.53532 -26.47737,-14.56979 -9.24858,-1.78668 -18.97817,-3.85705 -26.14836,-0.0826 z"
   id="path3771"
   inkscape:connector-curvature="0"
   sodipodi:nodetypes="cccccccccccccccccsssccccccccsccsccccssscccccccccc" />
	 
</svg>