<?xml version="1.0" encoding="UTF-8" standalone="no"?>
<svg
   xmlns:dc="http://purl.org/dc/elements/1.1/"
   xmlns:cc="http://creativecommons.org/ns#"
   xmlns:rdf="http://www.w3.org/1999/02/22-rdf-syntax-ns#"
   xmlns:svg="http://www.w3.org/2000/svg"
   xmlns="http://www.w3.org/2000/svg"
   xmlns:sodipodi="http://sodipodi.sourceforge.net/DTD/sodipodi-0.dtd"
   xmlns:inkscape="http://www.inkscape.org/namespaces/inkscape"
   version="1.1"
   id="Layer_1"
   x="0px"
   y="0px"
   width="1024"
   height="1024"
   viewBox="0 0 1024 1024"
   enable-background="new 0 0 512 512"
   xml:space="preserve"
   inkscape:version="0.48.0 r9654"
   sodipodi:docname="finaltsadiphoenician-x5e5.svg"><title
   id="title3743">Sinai 357</title><metadata
   id="metadata72"><rdf:RDF><cc:Work
       rdf:about=""><dc:format>image/svg+xml</dc:format><dc:type
         rdf:resource="http://purl.org/dc/dcmitype/StillImage" /><dc:title>Sinai 357</dc:title><dc:date>2017</dc:date><dc:creator><cc:Agent><dc:title>Celeste Claire Horner</dc:title></cc:Agent></dc:creator><dc:publisher><cc:Agent><dc:title>beitdina.net</dc:title></cc:Agent></dc:publisher></cc:Work></rdf:RDF></metadata><defs
   id="defs70" /><sodipodi:namedview
   pagecolor="#ffffff"
   bordercolor="#666666"
   borderopacity="1"
   objecttolerance="10"
   gridtolerance="10"
   guidetolerance="10"
   inkscape:pageopacity="0"
   inkscape:pageshadow="2"
   inkscape:window-width="1136"
   inkscape:window-height="814"
   id="namedview68"
   showgrid="false"
   inkscape:zoom="0.43297288"
   inkscape:cx="919.33351"
   inkscape:cy="375.25603"
   inkscape:window-x="0"
   inkscape:window-y="14"
   inkscape:window-maximized="0"
   inkscape:current-layer="g3782" />
   
	<g
   id="Grid"
   transform="matrix(2.0004581,0,0,2.0004578,0.50019527,4.8138064)">
		<rect
   x="0"
   stroke-miterlimit="10"
   width="512"
   height="512"
   id="rect4"
   y="0"
   style="fill:none;stroke:#a9ccdb;stroke-miterlimit:10" />
		<line
   stroke-miterlimit="10"
   x1="0"
   y1="32"
   x2="512"
   y2="32"
   id="line6"
   style="fill:none;stroke:#a9ccdb;stroke-miterlimit:10" />
		<line
   stroke-miterlimit="10"
   x1="0"
   y1="64"
   x2="512"
   y2="64"
   id="line8"
   style="fill:none;stroke:#a9ccdb;stroke-miterlimit:10" />
		<line
   stroke-miterlimit="10"
   x1="0"
   y1="96"
   x2="512"
   y2="96"
   id="line10"
   style="fill:none;stroke:#a9ccdb;stroke-miterlimit:10" />
		<line
   stroke-miterlimit="10"
   x1="0"
   y1="128"
   x2="512"
   y2="128"
   id="line12"
   style="fill:none;stroke:#a9ccdb;stroke-miterlimit:10" />
		<line
   stroke-miterlimit="10"
   x1="0"
   y1="160"
   x2="512"
   y2="160"
   id="line14"
   style="fill:none;stroke:#a9ccdb;stroke-miterlimit:10" />
		<line
   stroke-miterlimit="10"
   x1="0"
   y1="192"
   x2="512"
   y2="192"
   id="line16"
   style="fill:none;stroke:#a9ccdb;stroke-miterlimit:10" />
		<line
   stroke-miterlimit="10"
   x1="0"
   y1="224"
   x2="512"
   y2="224"
   id="line18"
   style="fill:none;stroke:#a9ccdb;stroke-miterlimit:10" />
		<line
   stroke-miterlimit="10"
   x1="0"
   y1="256"
   x2="512"
   y2="256"
   id="line20"
   style="fill:none;stroke:#a9ccdb;stroke-miterlimit:10" />
		<line
   stroke-miterlimit="10"
   x1="0"
   y1="288"
   x2="512"
   y2="288"
   id="line22"
   style="fill:none;stroke:#a9ccdb;stroke-miterlimit:10" />
		<line
   stroke-miterlimit="10"
   x1="0"
   y1="320"
   x2="512"
   y2="320"
   id="line24"
   style="fill:none;stroke:#a9ccdb;stroke-miterlimit:10" />
		<line
   stroke-miterlimit="10"
   x1="0"
   y1="352"
   x2="512"
   y2="352"
   id="line26"
   style="fill:none;stroke:#a9ccdb;stroke-miterlimit:10" />
		<line
   stroke-miterlimit="10"
   x1="0"
   y1="384"
   x2="512"
   y2="384"
   id="line28"
   style="fill:none;stroke:#a9ccdb;stroke-miterlimit:10" />
		<line
   stroke-miterlimit="10"
   x1="0"
   y1="416"
   x2="512"
   y2="416"
   id="line30"
   style="fill:none;stroke:#a9ccdb;stroke-miterlimit:10" />
		<line
   stroke-miterlimit="10"
   x1="0"
   y1="448"
   x2="512"
   y2="448"
   id="line32"
   style="fill:none;stroke:#ff0000;stroke-miterlimit:10" />
		<line
   stroke-miterlimit="10"
   x1="0"
   y1="480"
   x2="512"
   y2="480"
   id="line34"
   style="fill:none;stroke:#a9ccdb;stroke-miterlimit:10" />
		<line
   stroke-miterlimit="10"
   x1="32"
   y1="0"
   x2="32"
   y2="512"
   id="line36"
   style="fill:none;stroke:#a9ccdb;stroke-miterlimit:10" />
		<line
   stroke-miterlimit="10"
   x1="64"
   y1="0"
   x2="64"
   y2="512"
   id="line38"
   style="fill:none;stroke:#a9ccdb;stroke-miterlimit:10" />
		<line
   stroke-miterlimit="10"
   x1="96"
   y1="0"
   x2="96"
   y2="512"
   id="line40"
   style="fill:none;stroke:#a9ccdb;stroke-miterlimit:10" />
		<line
   stroke-miterlimit="10"
   x1="128"
   y1="0"
   x2="128"
   y2="512"
   id="line42"
   style="fill:none;stroke:#a9ccdb;stroke-miterlimit:10" />
		<line
   stroke-miterlimit="10"
   x1="160"
   y1="0"
   x2="160"
   y2="512"
   id="line44"
   style="fill:none;stroke:#a9ccdb;stroke-miterlimit:10" />
		<line
   stroke-miterlimit="10"
   x1="192"
   y1="0"
   x2="192"
   y2="512"
   id="line46"
   style="fill:none;stroke:#a9ccdb;stroke-miterlimit:10" />
		<line
   stroke-miterlimit="10"
   x1="224"
   y1="0"
   x2="224"
   y2="512"
   id="line48"
   style="fill:none;stroke:#a9ccdb;stroke-miterlimit:10" />
		<line
   stroke-miterlimit="10"
   x1="256"
   y1="0"
   x2="256"
   y2="512"
   id="line50"
   style="fill:none;stroke:#a9ccdb;stroke-miterlimit:10" />
		<line
   stroke-miterlimit="10"
   x1="288"
   y1="0"
   x2="288"
   y2="512"
   id="line52"
   style="fill:none;stroke:#a9ccdb;stroke-miterlimit:10" />
		<line
   stroke-miterlimit="10"
   x1="320"
   y1="0"
   x2="320"
   y2="512"
   id="line54"
   style="fill:none;stroke:#a9ccdb;stroke-miterlimit:10" />
		<line
   stroke-miterlimit="10"
   x1="352"
   y1="0"
   x2="352"
   y2="512"
   id="line56"
   style="fill:none;stroke:#a9ccdb;stroke-miterlimit:10" />
		<line
   stroke-miterlimit="10"
   x1="384"
   y1="0"
   x2="384"
   y2="512"
   id="line58"
   style="fill:none;stroke:#a9ccdb;stroke-miterlimit:10" />
		<line
   stroke-miterlimit="10"
   x1="416"
   y1="0"
   x2="416"
   y2="512"
   id="line60"
   style="fill:none;stroke:#a9ccdb;stroke-miterlimit:10" />
		<line
   stroke-miterlimit="10"
   x1="448"
   y1="0"
   x2="448"
   y2="512"
   id="line62"
   style="fill:none;stroke:#a9ccdb;stroke-miterlimit:10" />
		<line
   stroke-miterlimit="10"
   x1="480"
   y1="0"
   x2="480"
   y2="512"
   id="line64"
   style="fill:none;stroke:#a9ccdb;stroke-miterlimit:10" />
	</g>
	
<g
   id="g3784"
   transform="translate(103.52184,-429.7161)"><g
     transform="translate(-1248.1382,491.74712)"
     id="g3782"><path
       sodipodi:nodetypes="cccscccscscscccsscsccsccsccccccsccssssscscscccc"
       inkscape:connector-curvature="0"
       id="path3768-9"
       d="m 1396.9953,733.47578 c 6.8667,15.49597 17.3194,27.97274 32.5617,34.42634 16.1191,6.44212 42.2258,7.26708 58.9663,1.17867 15.3638,-5.58546 24.1475,-17.84802 29.5194,-32.19052 3.9126,-10.44603 6.0154,-21.99539 7.5327,-32.87198 1.763,-13.43119 -0.3087,-17.11555 -2.5119,-28.37583 -5.8812,-14.22982 -9.9069,-25.98167 -11.4113,-37.67324 -0.02,-8.82267 0.7255,-18.79182 2.2542,-29.15108 4.7113,-31.92628 -2.7655,-56.88442 17.3942,-74.08062 20.3608,11.73761 43.3491,13.49989 66.285,18.41735 21.2402,4.55388 52.8286,1.83787 71.8505,6.04597 19.0559,5.73549 38.6032,13.9301 55.0044,25.43066 20.2625,14.20812 35.7232,33.46206 39.5229,59.35858 2.3315,23.42093 7.407,47.82759 2.4466,67.48169 -4.3512,15.82962 -18.5316,32.13097 -34.901,31.08322 3.7658,-8.36086 13.8012,-14.75241 18.6967,-23.14999 6.5977,-11.31752 7.6306,-24.39325 7.0224,-33.03183 -0.9586,-13.61543 -5.7054,-25.72713 -22.5614,-37.00663 -14.3957,-9.47049 -40.6019,-13.09887 -52.6415,-7.68868 -4.5845,2.06008 -22.6469,15.97413 -26.313,18.05739 -15.987,12.72413 -22.4857,34.0661 -17.107,51.29718 1.5445,21.03813 6.3797,40.93247 14.2803,58.45706 15.8371,35.12853 43.9911,60.73503 82.6458,66.94484 21.9753,2.49327 43.9108,-0.44788 61.0063,-9.31468 19.0801,-12.76764 31.5672,-28.25241 39.7122,-45.51295 9.325,-19.7612 12.9585,-41.84998 14.2782,-64.85369 0.9992,-19.33476 -1.0242,-40.58245 0.042,-59.71658 1.6919,-30.6329 -11.7439,-50.26333 -17.1952,-77.36085 -3.775,-17.41455 -25.5928,-41.13885 -40.4468,-53.74964 -68.8878,-39.56996 -78.7236,-55.55925 -153.4246,-61.94191 -28.0831,-2.55679 -53.5775,-3.68223 -60.2086,-16.66312 3.2344,-64.06415 39.2056,-110.74578 55.0414,-163.10527 6.5182,-21.55182 9.625,-44.0656 5.6333,-69.14953 -6.0408,-35.6641 -26.4097,-66.2834 -59.5674,-99.30411 -26.3822,-26.481034 -78.297,-19.706424 -131.6272,-32.725874 -56.7419,-13.85235 -96.3259,-38.80496 -117.1983,-47.27725 -48.1087,-19.52776 -96.3512,-36.2721796 -117.2434,35.50404 -5.6496,19.4093 30.023,81.298234 98.9112,95.183664 21.7894,4.39199 41.8312,-1.82422 89.9429,-0.4941 43.3629,1.19882 82.1066,-2.15341 93.024,10.3289 11.6647,11.17221 18.4848,23.40865 21.4708,37.14891 3.2359,14.89058 1.9688,31.54734 -2.5152,50.52976 -29.0137,69.5647 -58.4349,142.30773 -88.9293,210.39493 -11.3846,25.41944 -22.9189,50.18995 -34.6373,73.90388 -15.9138,32.14945 -31.7343,63.00518 -28.0367,90.70069 5.1065,33.10323 21.1955,66.89799 33.4315,94.51623 z"
       style="fill:#589ad7;fill-opacity:0.70434786" /></g></g></svg>