<?xml version="1.0" encoding="UTF-8" standalone="no"?>
<svg
   xmlns:dc="http://purl.org/dc/elements/1.1/"
   xmlns:cc="http://creativecommons.org/ns#"
   xmlns:rdf="http://www.w3.org/1999/02/22-rdf-syntax-ns#"
   xmlns:svg="http://www.w3.org/2000/svg"
   xmlns="http://www.w3.org/2000/svg"
   xmlns:sodipodi="http://sodipodi.sourceforge.net/DTD/sodipodi-0.dtd"
   xmlns:inkscape="http://www.inkscape.org/namespaces/inkscape"
   version="1.1"
   id="Layer_1"
   x="0px"
   y="0px"
   width="800"
   height="1024"
   viewBox="0 0 800 1024"
   enable-background="new 0 0 512 512"
   xml:space="preserve"
   inkscape:version="0.48.0 r9654"
   sodipodi:docname="finalmemhebrew-x5dd.svg"><title
   id="title3743">Sinai 357</title><metadata
   id="metadata72"><rdf:RDF><cc:Work
       rdf:about=""><dc:format>image/svg+xml</dc:format><dc:type
         rdf:resource="http://purl.org/dc/dcmitype/StillImage" /><dc:title>Sinai 357</dc:title><dc:date>2017</dc:date><dc:creator><cc:Agent><dc:title>Celeste Claire Horner</dc:title></cc:Agent></dc:creator><dc:publisher><cc:Agent><dc:title>beitdina.net</dc:title></cc:Agent></dc:publisher></cc:Work></rdf:RDF></metadata><defs
   id="defs70" /><sodipodi:namedview
   pagecolor="#ffffff"
   bordercolor="#666666"
   borderopacity="1"
   objecttolerance="10"
   gridtolerance="10"
   guidetolerance="10"
   inkscape:pageopacity="0"
   inkscape:pageshadow="2"
   inkscape:window-width="1037"
   inkscape:window-height="779"
   id="namedview68"
   showgrid="false"
   inkscape:zoom="0.26003743"
   inkscape:cx="-324.43567"
   inkscape:cy="606.02723"
   inkscape:window-x="23"
   inkscape:window-y="23"
   inkscape:window-maximized="0"
   inkscape:current-layer="Layer_1" />
   
	<g
   id="Grid"
   transform="matrix(1.5502411,0,0,2.0004578,0.50019527,4.8138064)">
		<rect
   x="0"
   stroke-miterlimit="10"
   width="512"
   height="512"
   id="rect4"
   y="0"
   style="fill:none;stroke:#a9ccdb;stroke-miterlimit:10" />
		<line
   stroke-miterlimit="10"
   x1="0"
   y1="32"
   x2="512"
   y2="32"
   id="line6"
   style="fill:none;stroke:#a9ccdb;stroke-miterlimit:10" />
		<line
   stroke-miterlimit="10"
   x1="0"
   y1="64"
   x2="512"
   y2="64"
   id="line8"
   style="fill:none;stroke:#a9ccdb;stroke-miterlimit:10" />
		<line
   stroke-miterlimit="10"
   x1="0"
   y1="96"
   x2="512"
   y2="96"
   id="line10"
   style="fill:none;stroke:#a9ccdb;stroke-miterlimit:10" />
		<line
   stroke-miterlimit="10"
   x1="0"
   y1="128"
   x2="512"
   y2="128"
   id="line12"
   style="fill:none;stroke:#a9ccdb;stroke-miterlimit:10" />
		<line
   stroke-miterlimit="10"
   x1="0"
   y1="160"
   x2="512"
   y2="160"
   id="line14"
   style="fill:none;stroke:#a9ccdb;stroke-miterlimit:10" />
		<line
   stroke-miterlimit="10"
   x1="0"
   y1="192"
   x2="512"
   y2="192"
   id="line16"
   style="fill:none;stroke:#a9ccdb;stroke-miterlimit:10" />
		<line
   stroke-miterlimit="10"
   x1="0"
   y1="224"
   x2="512"
   y2="224"
   id="line18"
   style="fill:none;stroke:#a9ccdb;stroke-miterlimit:10" />
		<line
   stroke-miterlimit="10"
   x1="0"
   y1="256"
   x2="512"
   y2="256"
   id="line20"
   style="fill:none;stroke:#a9ccdb;stroke-miterlimit:10" />
		<line
   stroke-miterlimit="10"
   x1="0"
   y1="288"
   x2="512"
   y2="288"
   id="line22"
   style="fill:none;stroke:#a9ccdb;stroke-miterlimit:10" />
		<line
   stroke-miterlimit="10"
   x1="0"
   y1="320"
   x2="512"
   y2="320"
   id="line24"
   style="fill:none;stroke:#a9ccdb;stroke-miterlimit:10" />
		<line
   stroke-miterlimit="10"
   x1="0"
   y1="352"
   x2="512"
   y2="352"
   id="line26"
   style="fill:none;stroke:#a9ccdb;stroke-miterlimit:10" />
		<line
   stroke-miterlimit="10"
   x1="0"
   y1="384"
   x2="512"
   y2="384"
   id="line28"
   style="fill:none;stroke:#a9ccdb;stroke-miterlimit:10" />
		<line
   stroke-miterlimit="10"
   x1="0"
   y1="416"
   x2="512"
   y2="416"
   id="line30"
   style="fill:none;stroke:#a9ccdb;stroke-miterlimit:10" />
		<line
   stroke-miterlimit="10"
   x1="0"
   y1="448"
   x2="512"
   y2="448"
   id="line32"
   style="fill:none;stroke:#ff0000;stroke-miterlimit:10" />
		<line
   stroke-miterlimit="10"
   x1="0"
   y1="480"
   x2="512"
   y2="480"
   id="line34"
   style="fill:none;stroke:#a9ccdb;stroke-miterlimit:10" />
		<line
   stroke-miterlimit="10"
   x1="32"
   y1="0"
   x2="32"
   y2="512"
   id="line36"
   style="fill:none;stroke:#a9ccdb;stroke-miterlimit:10" />
		<line
   stroke-miterlimit="10"
   x1="64"
   y1="0"
   x2="64"
   y2="512"
   id="line38"
   style="fill:none;stroke:#a9ccdb;stroke-miterlimit:10" />
		<line
   stroke-miterlimit="10"
   x1="96"
   y1="0"
   x2="96"
   y2="512"
   id="line40"
   style="fill:none;stroke:#a9ccdb;stroke-miterlimit:10" />
		<line
   stroke-miterlimit="10"
   x1="128"
   y1="0"
   x2="128"
   y2="512"
   id="line42"
   style="fill:none;stroke:#a9ccdb;stroke-miterlimit:10" />
		<line
   stroke-miterlimit="10"
   x1="160"
   y1="0"
   x2="160"
   y2="512"
   id="line44"
   style="fill:none;stroke:#a9ccdb;stroke-miterlimit:10" />
		<line
   stroke-miterlimit="10"
   x1="192"
   y1="0"
   x2="192"
   y2="512"
   id="line46"
   style="fill:none;stroke:#a9ccdb;stroke-miterlimit:10" />
		<line
   stroke-miterlimit="10"
   x1="224"
   y1="0"
   x2="224"
   y2="512"
   id="line48"
   style="fill:none;stroke:#a9ccdb;stroke-miterlimit:10" />
		<line
   stroke-miterlimit="10"
   x1="256"
   y1="0"
   x2="256"
   y2="512"
   id="line50"
   style="fill:none;stroke:#a9ccdb;stroke-miterlimit:10" />
		<line
   stroke-miterlimit="10"
   x1="288"
   y1="0"
   x2="288"
   y2="512"
   id="line52"
   style="fill:none;stroke:#a9ccdb;stroke-miterlimit:10" />
		<line
   stroke-miterlimit="10"
   x1="320"
   y1="0"
   x2="320"
   y2="512"
   id="line54"
   style="fill:none;stroke:#a9ccdb;stroke-miterlimit:10" />
		<line
   stroke-miterlimit="10"
   x1="352"
   y1="0"
   x2="352"
   y2="512"
   id="line56"
   style="fill:none;stroke:#a9ccdb;stroke-miterlimit:10" />
		<line
   stroke-miterlimit="10"
   x1="384"
   y1="0"
   x2="384"
   y2="512"
   id="line58"
   style="fill:none;stroke:#a9ccdb;stroke-miterlimit:10" />
		<line
   stroke-miterlimit="10"
   x1="416"
   y1="0"
   x2="416"
   y2="512"
   id="line60"
   style="fill:none;stroke:#a9ccdb;stroke-miterlimit:10" />
		<line
   stroke-miterlimit="10"
   x1="448"
   y1="0"
   x2="448"
   y2="512"
   id="line62"
   style="fill:none;stroke:#a9ccdb;stroke-miterlimit:10" />
		<line
   stroke-miterlimit="10"
   x1="480"
   y1="0"
   x2="480"
   y2="512"
   id="line64"
   style="fill:none;stroke:#a9ccdb;stroke-miterlimit:10" />
	</g>
	
<path
   style="fill:#b88077;fill-opacity:0.53478256"
   d="m 361.18801,44.041006 c -8.6567,1.4128 -11.4603,3.3205 -16.9562,11.53751 -17.02329,29.7827 -11.79323,50.646604 6.60762,66.341204 29.92983,17.7005 56.48063,24.5501 86.82213,40.6066 51.4186,35.0379 122.7335,59.22434 161.1123,96.3384 7.9496,7.9247 28.6358,15.61613 31.9657,22.24644 -10.5191,37.06697 1.6788,74.97601 -4.1945,109.41222 -2.8114,13.69397 -10.2439,25.11846 -14.3419,37.96062 -5.114,15.99735 -10.3869,31.68538 -15.5739,46.6727 -4.7701,13.73956 -9.7839,27.11732 -14.6184,39.90951 -5.6333,14.90372 -11.1671,29.53729 -16.0812,44.07595 -3.966,11.74327 -7.8264,23.31834 -12.1002,34.54804 -3.9031,10.22472 -7.9579,20.19165 -11.9227,29.8841 -4.5597,11.19747 -8.4146,21.87318 -8.7358,28.23168 -1.1241,22.28253 -2.2313,29.97235 -5.1936,36.0696 -1.7935,3.69159 -22.0816,4.64942 -25.3469,5.52868 -23.3862,6.29725 -44.4006,4.00988 -71.8682,-5.17791 -4.9287,-1.64861 -14.3787,-4.34202 -21,-5.98535 -13.8141,-1.39239 -23.868,-6.56841 -31.9246,-13.77062 -12.58223,-11.24802 -20.2928,-27.43804 -29.84635,-41.87576 -7.38126,-11.19855 -15.33666,-33.9507 -23.15381,-46.33274 -9.9548,-31.32196 6.2442,-63.13 5.745,-116.9155 -2.05249,-47.51013 -2.05712,-75.33335 0.26829,-122.50425 3.82301,-77.54969 12.5923,-161.19121 2.78286,-241.958914 -9.81626,-20.172 -26.43825,-2.5497 -42.40139,-12.3639 -22.31208,-13.7176 -42.60335,-8.0399 -56.88117,6.0853 -11.08705,10.968604 -8.97917,36.901404 -9.57376,51.094404 -2.28392,57.937 -2.30645,163.4604 -3.56393,199.60696 -1.2485,28.50098 -3.6946,64.82216 -8.0481,119.5 -2.60911,32.76897 -3.16445,45.55057 -3.4759,80 -0.41307,45.69105 -1.89734,65.2259 -5.38462,70.86844 -4.19816,6.79276 -15.13862,12.68973 -27.21742,14.67033 -6.36017,1.04289 -11.99817,0.84177 -41.36389,-1.47561 -37.37985,-2.94981 -54.965467,-3.45478 -58.293077,-1.6739 -4.00067,2.1411 -6.95451,8.93907 -7.43491,17.11074 -0.5331,9.06807 -1.71697,11.16397 -7.95678,14.08654 -2.6436,1.2382 -5.52307,3.34482 -6.39882,4.68137 -2.4929,3.80465 -5.41641,13.16295 -5.41641,17.33819 0,5.68406 11.32186,48.15818 15.85804,59.49165 5.83336,14.57444 9.58853,22.62102 14.10305,30.22009 2.21499,3.72838 7.41111,15.91066 11.54694,27.07174 2.469717,7.94781 4.857557,14.30115 7.732737,19.80203 4.80897,9.20066 10.98128,16.01656 21.18032,23.91969 8.90676,6.84999 18.51714,12.53088 27.70429,17.43317 5.36572,2.85307 10.79539,5.61065 16.22019,8.46097 6.57537,3.45487 10.74009,4.16178 17.17859,8.22431 4.73491,2.86031 12.72809,4.08026 32.73741,0.29727 5.25718,-1.14094 11.56076,-3.81259 18.20846,-9.09225 14.1438,-11.23313 22.3921,-14.51243 36.03,-14.32455 15.63,0.21532 26.9799,6.11574 45.0989,23.44531 6.7953,6.49923 14.278,13.11604 16.6281,14.70403 5.2472,3.54554 15.5774,7.85451 22.2669,9.28805 7.3239,1.5695 22.03326,1.33765 29.82836,-0.47016 15.6626,-3.6324 22.7251,-9.54043 33.7383,-28.22326 7.0437,-11.94898 13.5114,-19.58712 18.9148,-22.3377 2.4473,-1.24582 7.0394,-2.00065 15.0246,-2.46968 10.1132,-0.59403 12.9937,-0.36626 23.8875,1.88886 6.8131,1.41039 13.3143,2.56434 14.447,2.56434 1.2931,0 4.9139,3.07011 9.7297,8.25 l 7.6702,8.25 37.8828,-0.28151 c 22.9483,-0.17053 44.1904,-0.85883 53.8828,-1.74594 8.8,-0.80544 24.6403,-1.46626 35.2008,-1.46849 24.274,-0.005 28.4198,-0.80749 32.3736,-6.26544 4.1062,-5.6685 6.4934,-14.18343 8.3617,-29.82525 2.5104,-21.01852 3.0653,-22.96655 8.7182,-30.60684 2.7698,-3.7436 7.3556,-11.53154 10.1908,-17.30654 l 5.1549,-10.5 -0.044,-11 c -0.037,-9.25896 -0.6464,-13.45329 -3.8481,-26.5 -5.1809,-21.11131 0.6389,-25.50822 6.4053,-54.5 5.8596,-30.29409 13.344,-63.78498 20.8344,-90.73932 9.2681,-30.93293 18.8755,-64.23911 23.6217,-107.26068 5.8375,-52.91356 7.8322,-102.12064 6.4454,-159 -0.9736,-39.93236 -3.025,-53.65944 -10.9245,-73.10072 -9.9032,-24.37256 -11.533,-27.04431 -35.9295,-46.71414 -19.2501,-15.5204 -31.5608,-23.8841 -60.1412,-36.7471 -36.5522,-26.0969 -70.433,-42.931 -105.2969,-58.628 -28.4451,-12.807104 -57.5446,-24.857204 -89.2833,-40.563804 -25.0339,-13.25231 -57.94,-12.38541 -82.9605,-18.26241 -0.5027,-0.2657 -2.93895,-0.1527 -5.41395,0.2512 z"
   id="path3796"
   inkscape:connector-curvature="0"
   sodipodi:nodetypes="ccccccccccccccssscscccscssccsssssssssssscsccsccsssssssssssscssscssscssccsssscscccc" />
	 
</svg>