<?xml version="1.0" encoding="UTF-8" standalone="no"?>
<svg
   xmlns:dc="http://purl.org/dc/elements/1.1/"
   xmlns:cc="http://creativecommons.org/ns#"
   xmlns:rdf="http://www.w3.org/1999/02/22-rdf-syntax-ns#"
   xmlns:svg="http://www.w3.org/2000/svg"
   xmlns="http://www.w3.org/2000/svg"
   xmlns:sodipodi="http://sodipodi.sourceforge.net/DTD/sodipodi-0.dtd"
   xmlns:inkscape="http://www.inkscape.org/namespaces/inkscape"
   version="1.1"
   id="Layer_1"
   x="0px"
   y="0px"
   width="1024"
   height="1024"
   viewBox="0 0 1024 1024"
   enable-background="new 0 0 512 512"
   xml:space="preserve"
   inkscape:version="0.48.0 r9654"
   sodipodi:docname="finaltsadihebrew-x5e5.svg"><title
   id="title3743">Sinai 357</title><metadata
   id="metadata72"><rdf:RDF><cc:Work
       rdf:about=""><dc:format>image/svg+xml</dc:format><dc:type
         rdf:resource="http://purl.org/dc/dcmitype/StillImage" /><dc:title>Sinai 357</dc:title><dc:date>2017</dc:date><dc:creator><cc:Agent><dc:title>Celeste Claire Horner</dc:title></cc:Agent></dc:creator><dc:publisher><cc:Agent><dc:title>beitdina.net</dc:title></cc:Agent></dc:publisher></cc:Work></rdf:RDF></metadata><defs
   id="defs70" /><sodipodi:namedview
   pagecolor="#ffffff"
   bordercolor="#666666"
   borderopacity="1"
   objecttolerance="10"
   gridtolerance="10"
   guidetolerance="10"
   inkscape:pageopacity="0"
   inkscape:pageshadow="2"
   inkscape:window-width="1136"
   inkscape:window-height="814"
   id="namedview68"
   showgrid="false"
   inkscape:zoom="0.30615806"
   inkscape:cx="998.66271"
   inkscape:cy="693.31004"
   inkscape:window-x="-28"
   inkscape:window-y="-8"
   inkscape:window-maximized="0"
   inkscape:current-layer="Layer_1" />
   
	<g
   id="Grid"
   transform="matrix(2.0004581,0,0,2.0004578,0.50019527,4.8138064)">
		<rect
   x="0"
   stroke-miterlimit="10"
   width="512"
   height="512"
   id="rect4"
   y="0"
   style="fill:none;stroke:#a9ccdb;stroke-miterlimit:10" />
		<line
   stroke-miterlimit="10"
   x1="0"
   y1="32"
   x2="512"
   y2="32"
   id="line6"
   style="fill:none;stroke:#a9ccdb;stroke-miterlimit:10" />
		<line
   stroke-miterlimit="10"
   x1="0"
   y1="64"
   x2="512"
   y2="64"
   id="line8"
   style="fill:none;stroke:#a9ccdb;stroke-miterlimit:10" />
		<line
   stroke-miterlimit="10"
   x1="0"
   y1="96"
   x2="512"
   y2="96"
   id="line10"
   style="fill:none;stroke:#a9ccdb;stroke-miterlimit:10" />
		<line
   stroke-miterlimit="10"
   x1="0"
   y1="128"
   x2="512"
   y2="128"
   id="line12"
   style="fill:none;stroke:#a9ccdb;stroke-miterlimit:10" />
		<line
   stroke-miterlimit="10"
   x1="0"
   y1="160"
   x2="512"
   y2="160"
   id="line14"
   style="fill:none;stroke:#a9ccdb;stroke-miterlimit:10" />
		<line
   stroke-miterlimit="10"
   x1="0"
   y1="192"
   x2="512"
   y2="192"
   id="line16"
   style="fill:none;stroke:#a9ccdb;stroke-miterlimit:10" />
		<line
   stroke-miterlimit="10"
   x1="0"
   y1="224"
   x2="512"
   y2="224"
   id="line18"
   style="fill:none;stroke:#a9ccdb;stroke-miterlimit:10" />
		<line
   stroke-miterlimit="10"
   x1="0"
   y1="256"
   x2="512"
   y2="256"
   id="line20"
   style="fill:none;stroke:#a9ccdb;stroke-miterlimit:10" />
		<line
   stroke-miterlimit="10"
   x1="0"
   y1="288"
   x2="512"
   y2="288"
   id="line22"
   style="fill:none;stroke:#a9ccdb;stroke-miterlimit:10" />
		<line
   stroke-miterlimit="10"
   x1="0"
   y1="320"
   x2="512"
   y2="320"
   id="line24"
   style="fill:none;stroke:#a9ccdb;stroke-miterlimit:10" />
		<line
   stroke-miterlimit="10"
   x1="0"
   y1="352"
   x2="512"
   y2="352"
   id="line26"
   style="fill:none;stroke:#a9ccdb;stroke-miterlimit:10" />
		<line
   stroke-miterlimit="10"
   x1="0"
   y1="384"
   x2="512"
   y2="384"
   id="line28"
   style="fill:none;stroke:#a9ccdb;stroke-miterlimit:10" />
		<line
   stroke-miterlimit="10"
   x1="0"
   y1="416"
   x2="512"
   y2="416"
   id="line30"
   style="fill:none;stroke:#a9ccdb;stroke-miterlimit:10" />
		<line
   stroke-miterlimit="10"
   x1="0"
   y1="448"
   x2="512"
   y2="448"
   id="line32"
   style="fill:none;stroke:#ff0000;stroke-miterlimit:10" />
		<line
   stroke-miterlimit="10"
   x1="0"
   y1="480"
   x2="512"
   y2="480"
   id="line34"
   style="fill:none;stroke:#a9ccdb;stroke-miterlimit:10" />
		<line
   stroke-miterlimit="10"
   x1="32"
   y1="0"
   x2="32"
   y2="512"
   id="line36"
   style="fill:none;stroke:#a9ccdb;stroke-miterlimit:10" />
		<line
   stroke-miterlimit="10"
   x1="64"
   y1="0"
   x2="64"
   y2="512"
   id="line38"
   style="fill:none;stroke:#a9ccdb;stroke-miterlimit:10" />
		<line
   stroke-miterlimit="10"
   x1="96"
   y1="0"
   x2="96"
   y2="512"
   id="line40"
   style="fill:none;stroke:#a9ccdb;stroke-miterlimit:10" />
		<line
   stroke-miterlimit="10"
   x1="128"
   y1="0"
   x2="128"
   y2="512"
   id="line42"
   style="fill:none;stroke:#a9ccdb;stroke-miterlimit:10" />
		<line
   stroke-miterlimit="10"
   x1="160"
   y1="0"
   x2="160"
   y2="512"
   id="line44"
   style="fill:none;stroke:#a9ccdb;stroke-miterlimit:10" />
		<line
   stroke-miterlimit="10"
   x1="192"
   y1="0"
   x2="192"
   y2="512"
   id="line46"
   style="fill:none;stroke:#a9ccdb;stroke-miterlimit:10" />
		<line
   stroke-miterlimit="10"
   x1="224"
   y1="0"
   x2="224"
   y2="512"
   id="line48"
   style="fill:none;stroke:#a9ccdb;stroke-miterlimit:10" />
		<line
   stroke-miterlimit="10"
   x1="256"
   y1="0"
   x2="256"
   y2="512"
   id="line50"
   style="fill:none;stroke:#a9ccdb;stroke-miterlimit:10" />
		<line
   stroke-miterlimit="10"
   x1="288"
   y1="0"
   x2="288"
   y2="512"
   id="line52"
   style="fill:none;stroke:#a9ccdb;stroke-miterlimit:10" />
		<line
   stroke-miterlimit="10"
   x1="320"
   y1="0"
   x2="320"
   y2="512"
   id="line54"
   style="fill:none;stroke:#a9ccdb;stroke-miterlimit:10" />
		<line
   stroke-miterlimit="10"
   x1="352"
   y1="0"
   x2="352"
   y2="512"
   id="line56"
   style="fill:none;stroke:#a9ccdb;stroke-miterlimit:10" />
		<line
   stroke-miterlimit="10"
   x1="384"
   y1="0"
   x2="384"
   y2="512"
   id="line58"
   style="fill:none;stroke:#a9ccdb;stroke-miterlimit:10" />
		<line
   stroke-miterlimit="10"
   x1="416"
   y1="0"
   x2="416"
   y2="512"
   id="line60"
   style="fill:none;stroke:#a9ccdb;stroke-miterlimit:10" />
		<line
   stroke-miterlimit="10"
   x1="448"
   y1="0"
   x2="448"
   y2="512"
   id="line62"
   style="fill:none;stroke:#a9ccdb;stroke-miterlimit:10" />
		<line
   stroke-miterlimit="10"
   x1="480"
   y1="0"
   x2="480"
   y2="512"
   id="line64"
   style="fill:none;stroke:#a9ccdb;stroke-miterlimit:10" />
	</g>
	
<g
   id="g3784"
   transform="matrix(1,0,0,-1,-17.330768,1460.3118)"><path
     sodipodi:nodetypes="ccssscsscccccccsscscccscscccccsssscssssccscccccccsscssscscsssc"
     inkscape:connector-curvature="0"
     id="path3798"
     d="m 82.216809,1297.1448 c 5.7478,-31.9124 32.123001,-55.8547 52.610401,-68.5202 17.7534,-9.6606 35.057,-14.6097 52.2361,-16.8975 14.4168,-1.92 28.7459,-1.9657 43.1797,-1.349 18.0474,0.7712 36.2585,2.5782 55.0091,3.0523 12.4531,0.3149 25.1443,0.042 38.1835,-1.5129 6.5836,-0.79 15.779,-1.4364 20.4343,-1.4364 6.4844,0 9.453,-0.4787 12.6916,-2.0465 8.3572,-4.0456 26.5172,-25.9662 30.1998,-36.4535 1.1176,-15.9883 -0.3863,-31.3574 -3.2192,-46.3502 -6.6861,-72.283 -50.6433,-130.59076 -79.3708,-188.90912 -6.2175,-12.84954 -10.4953,-27.08147 -16.627,-38.9723 -4.7053,-9.06167 -9.6056,-18.04587 -11.3541,-27.54057 -2.144,-12.6481 -8.0467,-28.8366 -14.2126,-38.9792 -2.1022,-3.4578 -6.0151,-10.787 -8.6955,-16.287 -2.6803,-5.5 -9.851,-17.5066 -15.9348,-26.6813 -10.9561,-16.5225 -12.7165,-29.7677 -13.9412,-37.4264 -0.7762,-4.854 3.0343,-21.4626 7.5077,-32.7237 13.8052,-27.6385 35.9905,-49.8916 61.7238,-65.5953 26.3543,-16.0826 56.4299,-25.2958 85.0368,-26.389 22.1927,-0.1236 41.7549,9.3762 54.5797,32.5998 16.8878,30.6853 19.0612,70.39 -15.9372,94.4408 -5.3303,3.6544 -10.6463,7.3201 -15.4479,11.4683 -10.565,9.1274 -18.6394,20.591 -18.8965,39.4109 0.014,9.6551 5.7099,28.2783 11.4101,37.3047 l 2.76,4.3704 2.9471,-3.5753 c 27.5405,-20.5309 78.0419,-24.3118 87.2814,-56.1656 0.7754,-3.3 2.4049,-10.275 3.6211,-15.5 1.2163,-5.225 3.7328,-12.5262 5.5923,-16.225 2.2103,-4.3963 3.381,-8.1554 3.381,-10.8556 0,-6.3901 2.7677,-15.636 7.3096,-24.4194 12.5237,-24.2187 53.6581,-50.3044 89.192,-56.5619 14.6109,-2.5729 38.1528,-3.1073 46.4984,-1.0555 13.6418,3.3539 23.7964,10.8815 28.2447,20.9378 1.1366,2.5694 4.1212,7.7617 6.6325,11.5383 3.8628,5.809 4.6706,7.8889 5.2446,13.504 1.6324,15.9675 3.1168,27.1575 4.5284,34.1373 1.2907,6.3821 1.3382,9.5124 0.3188,21 -0.6589,7.425 -1.1355,14.85 -1.059,16.5 0.4462,24.3087 -5.4919,21.802 -19.7679,35.2089 -8.9301,8.4238 -14.7696,13.0398 -33.0934,26.1599 -32.8538,23.5236 -48.5691,31.0484 -65.0487,31.1464 -10.9077,2.2787 -22.8009,3.1093 -32.786,4.7323 -16.1785,0.8186 -28.0284,7.0512 -39.3029,14.0862 -22.7367,14.35299 -42.3479,17.96403 -42.7045,46.99018 -0.047,17.66342 6.3363,37.59089 9.2223,50.92329 4.7498,21.72012 11.6655,42.18142 25.4219,65.50102 13.7147,23.1524 17.0804,30.0302 20.5368,41.9678 1.4396,9.4223 2.4282,18.6372 2.9067,27.6515 1.1721,22.0845 -0.7181,42.9653 -6.5424,62.7432 -6.3201,21.4612 -17.2724,41.6238 -33.9709,60.6162 -19.9042,22.6989 -26.0243,27.725 -36.281,29.7953 -3.3,0.666 -9.2742,2.5086 -13.276,4.0944 -4.0018,1.5859 -8.0026,2.8835 -8.8905,2.8835 -0.8879,0 -3.4637,0.873 -5.724,1.9401 -2.2602,1.0671 -8.7619,2.6766 -14.4481,3.5766 -27.0592,4.2829 -79.8546,3.993 -137.5867,27.1276 -5.9439,3.309 -14.7715,8.2799 -25.3538,13.6715 -16.0559,8.1804 -36.1513,17.3292 -56.3431,23.1109 -16.1531,4.6252 -32.3679,7.0956 -46.6258,5.1915 -25.3068,-3.3796 -48.147301,-25.6259 -44.000701,-60.9545 z"
     style="fill:#574e46" /></g></svg>