<?xml version="1.0" encoding="UTF-8" standalone="no"?>
<svg
   xmlns:dc="http://purl.org/dc/elements/1.1/"
   xmlns:cc="http://creativecommons.org/ns#"
   xmlns:rdf="http://www.w3.org/1999/02/22-rdf-syntax-ns#"
   xmlns:svg="http://www.w3.org/2000/svg"
   xmlns="http://www.w3.org/2000/svg"
   xmlns:sodipodi="http://sodipodi.sourceforge.net/DTD/sodipodi-0.dtd"
   xmlns:inkscape="http://www.inkscape.org/namespaces/inkscape"
   version="1.1"
   id="Layer_1"
   x="0px"
   y="0px"
   width="800"
   height="1100"
   viewBox="0 0 800 1100"
   enable-background="new 0 0 512 512"
   xml:space="preserve"
   inkscape:version="0.48.0 r9654"
   sodipodi:docname="lamedhebrew-x5dc.svg"><title
   id="title3743">Sinai 357</title><metadata
   id="metadata72"><rdf:RDF><cc:Work
       rdf:about=""><dc:format>image/svg+xml</dc:format><dc:type
         rdf:resource="http://purl.org/dc/dcmitype/StillImage" /><dc:title>Sinai 357</dc:title><dc:date>2017</dc:date><dc:creator><cc:Agent><dc:title>Celeste Claire Horner</dc:title></cc:Agent></dc:creator><dc:publisher><cc:Agent><dc:title>beitdina.net</dc:title></cc:Agent></dc:publisher></cc:Work></rdf:RDF></metadata><defs
   id="defs70" /><sodipodi:namedview
   pagecolor="#ffffff"
   bordercolor="#666666"
   borderopacity="1"
   objecttolerance="10"
   gridtolerance="10"
   guidetolerance="10"
   inkscape:pageopacity="0"
   inkscape:pageshadow="2"
   inkscape:window-width="1152"
   inkscape:window-height="814"
   id="namedview68"
   showgrid="false"
   inkscape:zoom="0.26529628"
   inkscape:cx="-286.77085"
   inkscape:cy="377.44904"
   inkscape:window-x="-8"
   inkscape:window-y="-8"
   inkscape:window-maximized="1"
   inkscape:current-layer="Layer_1" />
   
	<g
   id="Grid"
   transform="matrix(1.5531994,0,0,2.1460938,11.161585,6.1840744)">
		<rect
   x="-3.9912212"
   stroke-miterlimit="10"
   width="515.99121"
   height="512"
   id="rect4"
   y="0"
   style="fill:none;stroke:#a9ccdb;stroke-width:1.00389016;stroke-miterlimit:10" />
		<line
   stroke-miterlimit="10"
   x1="-3.9912212"
   y1="32"
   x2="512"
   y2="32"
   id="line6"
   style="fill:none;stroke:#a9ccdb;stroke-width:1.00389016;stroke-miterlimit:10" />
		<line
   stroke-miterlimit="10"
   x1="-3.9912212"
   y1="64"
   x2="512"
   y2="64"
   id="line8"
   style="fill:none;stroke:#a9ccdb;stroke-width:1.00389016;stroke-miterlimit:10" />
		<line
   stroke-miterlimit="10"
   x1="-3.9912212"
   y1="96"
   x2="512"
   y2="96"
   id="line10"
   style="fill:none;stroke:#a9ccdb;stroke-width:1.00389016;stroke-miterlimit:10" />
		<line
   stroke-miterlimit="10"
   x1="-3.9912212"
   y1="128"
   x2="512"
   y2="128"
   id="line12"
   style="fill:none;stroke:#a9ccdb;stroke-width:1.00389016;stroke-miterlimit:10" />
		<line
   stroke-miterlimit="10"
   x1="-3.9912212"
   y1="160"
   x2="512"
   y2="160"
   id="line14"
   style="fill:none;stroke:#a9ccdb;stroke-width:1.00389016;stroke-miterlimit:10" />
		<line
   stroke-miterlimit="10"
   x1="-3.9912212"
   y1="192"
   x2="512"
   y2="192"
   id="line16"
   style="fill:none;stroke:#a9ccdb;stroke-width:1.00389016;stroke-miterlimit:10" />
		<line
   stroke-miterlimit="10"
   x1="-3.9912212"
   y1="224"
   x2="512"
   y2="224"
   id="line18"
   style="fill:none;stroke:#a9ccdb;stroke-width:1.00389016;stroke-miterlimit:10" />
		<line
   stroke-miterlimit="10"
   x1="-3.9912212"
   y1="256"
   x2="512"
   y2="256"
   id="line20"
   style="fill:none;stroke:#a9ccdb;stroke-width:1.00389016;stroke-miterlimit:10" />
		<line
   stroke-miterlimit="10"
   x1="-3.9912212"
   y1="288"
   x2="512"
   y2="288"
   id="line22"
   style="fill:none;stroke:#a9ccdb;stroke-width:1.00389016;stroke-miterlimit:10" />
		<line
   stroke-miterlimit="10"
   x1="-3.9912212"
   y1="320"
   x2="512"
   y2="320"
   id="line24"
   style="fill:none;stroke:#a9ccdb;stroke-width:1.00389016;stroke-miterlimit:10" />
		<line
   stroke-miterlimit="10"
   x1="-3.9912212"
   y1="352"
   x2="512"
   y2="352"
   id="line26"
   style="fill:none;stroke:#a9ccdb;stroke-width:1.00389016;stroke-miterlimit:10" />
		<line
   stroke-miterlimit="10"
   x1="-3.9912212"
   y1="384"
   x2="512"
   y2="384"
   id="line28"
   style="fill:none;stroke:#a9ccdb;stroke-width:1.00389016;stroke-miterlimit:10" />
		<line
   stroke-miterlimit="10"
   x1="-3.9912212"
   y1="416"
   x2="512"
   y2="416"
   id="line30"
   style="fill:none;stroke:#a9ccdb;stroke-width:1.00389016;stroke-miterlimit:10" />
		<line
   stroke-miterlimit="10"
   x1="-3.9912212"
   y1="448"
   x2="512"
   y2="448"
   id="line32"
   style="fill:none;stroke:#ff0000;stroke-width:1.00389016;stroke-miterlimit:10" />
		<line
   stroke-miterlimit="10"
   x1="-3.9912212"
   y1="480"
   x2="512"
   y2="480"
   id="line34"
   style="fill:none;stroke:#a9ccdb;stroke-width:1.00389016;stroke-miterlimit:10" />
		<line
   stroke-miterlimit="10"
   x1="28.25823"
   y1="0"
   x2="28.25823"
   y2="512"
   id="line36"
   style="fill:none;stroke:#a9ccdb;stroke-width:1.00389016;stroke-miterlimit:10" />
		<line
   stroke-miterlimit="10"
   x1="60.507683"
   y1="0"
   x2="60.507683"
   y2="512"
   id="line38"
   style="fill:none;stroke:#a9ccdb;stroke-width:1.00389016;stroke-miterlimit:10" />
		<line
   stroke-miterlimit="10"
   x1="92.757133"
   y1="0"
   x2="92.757133"
   y2="512"
   id="line40"
   style="fill:none;stroke:#a9ccdb;stroke-width:1.00389016;stroke-miterlimit:10" />
		<line
   stroke-miterlimit="10"
   x1="125.00658"
   y1="0"
   x2="125.00658"
   y2="512"
   id="line42"
   style="fill:none;stroke:#a9ccdb;stroke-width:1.00389016;stroke-miterlimit:10" />
		<line
   stroke-miterlimit="10"
   x1="157.25604"
   y1="0"
   x2="157.25604"
   y2="512"
   id="line44"
   style="fill:none;stroke:#a9ccdb;stroke-width:1.00389016;stroke-miterlimit:10" />
		<line
   stroke-miterlimit="10"
   x1="189.50549"
   y1="0"
   x2="189.50549"
   y2="512"
   id="line46"
   style="fill:none;stroke:#a9ccdb;stroke-width:1.00389016;stroke-miterlimit:10" />
		<line
   stroke-miterlimit="10"
   x1="221.75494"
   y1="0"
   x2="221.75494"
   y2="512"
   id="line48"
   style="fill:none;stroke:#a9ccdb;stroke-width:1.00389016;stroke-miterlimit:10" />
		<line
   stroke-miterlimit="10"
   x1="254.00439"
   y1="0"
   x2="254.00439"
   y2="512"
   id="line50"
   style="fill:none;stroke:#a9ccdb;stroke-width:1.00389016;stroke-miterlimit:10" />
		<line
   stroke-miterlimit="10"
   x1="286.25385"
   y1="0"
   x2="286.25385"
   y2="512"
   id="line52"
   style="fill:none;stroke:#a9ccdb;stroke-width:1.00389016;stroke-miterlimit:10" />
		<line
   stroke-miterlimit="10"
   x1="318.5033"
   y1="0"
   x2="318.5033"
   y2="512"
   id="line54"
   style="fill:none;stroke:#a9ccdb;stroke-width:1.00389016;stroke-miterlimit:10" />
		<line
   stroke-miterlimit="10"
   x1="350.75275"
   y1="0"
   x2="350.75275"
   y2="512"
   id="line56"
   style="fill:none;stroke:#a9ccdb;stroke-width:1.00389016;stroke-miterlimit:10" />
		<line
   stroke-miterlimit="10"
   x1="383.0022"
   y1="0"
   x2="383.0022"
   y2="512"
   id="line58"
   style="fill:none;stroke:#a9ccdb;stroke-width:1.00389016;stroke-miterlimit:10" />
		<line
   stroke-miterlimit="10"
   x1="415.25165"
   y1="0"
   x2="415.25165"
   y2="512"
   id="line60"
   style="fill:none;stroke:#a9ccdb;stroke-width:1.00389016;stroke-miterlimit:10" />
		<line
   stroke-miterlimit="10"
   x1="447.5011"
   y1="0"
   x2="447.5011"
   y2="512"
   id="line62"
   style="fill:none;stroke:#a9ccdb;stroke-width:1.00389016;stroke-miterlimit:10" />
		<line
   stroke-miterlimit="10"
   x1="479.75055"
   y1="0"
   x2="479.75055"
   y2="512"
   id="line64"
   style="fill:none;stroke:#a9ccdb;stroke-width:1.00389016;stroke-miterlimit:10" />
	</g>
	

<path
   style="fill:#6aa7cd;fill-opacity:0.63043482"
   d="m 333.92804,140.8976 c 0.38862,13.124 2.41317,31.08258 6.0988,43.23643 4.37756,14.95307 17.62638,42.48258 22.03127,56.73912 3.58153,11.59175 6.64373,23.21905 8.32737,35.31413 0.69991,5.54426 -0.19569,11.55639 -1.71361,16.94094 -3.08174,14.60509 -9.6799,15.88859 -21.08685,14.75813 -22.30972,-4.52234 -34.6704,0.49386 -56.35383,0.93356 -37.69843,5.32372 -61.14007,18.67313 -77.57413,38.11222 -14.13744,16.72254 -23.08902,37.95166 -31.46971,62.45489 -9.15392,26.29124 -16.29925,52.92263 -21.87695,75.03118 -16.79643,67.16316 -25.60886,137.26832 -34.60348,198.69254 -3.69313,25.31749 -6.31752,49.00504 -9.6506,71.53362 -3.57873,24.08283 -0.50862,45.12645 -6.74467,64.3948 -4.60415,12.32425 -20.105672,27.16777 -26.28055,39.32464 -5.535049,12.21652 -12.212707,25.15552 -17.325458,38.03391 -7.026257,17.69828 -12.440101,49.94151 -6.528254,65.37845 12.31563,22.96116 21.277884,35.81457 47.853992,43.76464 16.7164,4.4649 42.5671,1.0012 56.10692,-7.21543 9.55967,-7.91805 25.62362,-28.06091 32.46703,-40.0632 12.67518,-22.23035 14.72821,-46.10152 11.75098,-67.48478 -13.07866,-28.35422 -3.85572,-41.50264 -1.16189,-69.16099 2.68909,-22.74253 6.00774,-45.29256 9.59883,-67.43621 4.04405,-23.90934 8.2823,-48.2527 12.60489,-72.54339 8.87413,-49.86785 15.41771,-91.51767 24.05273,-136.7305 9.51056,-16.7628 11.76424,-46.36102 13.03659,-66.81956 1.15183,-18.52055 3.70077,-36.10387 16.28816,-48.31126 9.45996,-5.38395 20.11477,-7.66561 31.0155,-8.48469 18.74601,-0.90783 35.6558,-1.92843 51.28957,0.92897 19.60304,4.98537 31.47638,13.83839 50.99891,12.11071 21.43086,-2.0359 45.66078,-12.55742 54.01169,-28.25424 16.56454,-20.9147 7.99075,-36.36861 6.63532,-60.03082 -0.38463,-25.53909 -6.9025,-49.36317 -16.45127,-71.8782 -13.94947,-22.44293 -25.29199,-49.02714 -38.67962,-73.68733 -14.24045,-26.2311 -30.79487,-50.28528 -55.26217,-64.86258 -12.85638,-7.3789 -24.38818,-6.8638 -31.40551,5.2803 z"
   id="path3764"
   inkscape:connector-curvature="0"
   sodipodi:nodetypes="ccsccccsccccccscccscccscscccccccscc" /></svg>