<?xml version="1.0" encoding="UTF-8" standalone="no"?>
<svg
   xmlns:dc="http://purl.org/dc/elements/1.1/"
   xmlns:cc="http://creativecommons.org/ns#"
   xmlns:rdf="http://www.w3.org/1999/02/22-rdf-syntax-ns#"
   xmlns:svg="http://www.w3.org/2000/svg"
   xmlns="http://www.w3.org/2000/svg"
   xmlns:sodipodi="http://sodipodi.sourceforge.net/DTD/sodipodi-0.dtd"
   xmlns:inkscape="http://www.inkscape.org/namespaces/inkscape"
   version="1.1"
   id="Layer_1"
   x="0px"
   y="0px"
   width="700"
   height="1024"
   viewBox="0 0 700 1024"
   enable-background="new 0 0 512 512"
   xml:space="preserve"
   inkscape:version="0.48.0 r9654"
   sodipodi:docname="pehebrew-x5e4.svg"><title
   id="title3743">Sinai 357</title><metadata
   id="metadata72"><rdf:RDF><cc:Work
       rdf:about=""><dc:format>image/svg+xml</dc:format><dc:type
         rdf:resource="http://purl.org/dc/dcmitype/StillImage" /><dc:title>Sinai 357</dc:title><dc:date>2017</dc:date><dc:creator><cc:Agent><dc:title>Celeste Claire Horner</dc:title></cc:Agent></dc:creator><dc:publisher><cc:Agent><dc:title>beitdina.net</dc:title></cc:Agent></dc:publisher></cc:Work></rdf:RDF></metadata><defs
   id="defs70" /><sodipodi:namedview
   pagecolor="#ffffff"
   bordercolor="#666666"
   borderopacity="1"
   objecttolerance="10"
   gridtolerance="10"
   guidetolerance="10"
   inkscape:pageopacity="0"
   inkscape:pageshadow="2"
   inkscape:window-width="1152"
   inkscape:window-height="814"
   id="namedview68"
   showgrid="false"
   inkscape:zoom="0.36774845"
   inkscape:cx="75.312206"
   inkscape:cy="497.57992"
   inkscape:window-x="-8"
   inkscape:window-y="-8"
   inkscape:window-maximized="1"
   inkscape:current-layer="Layer_1"
   showguides="true"
   inkscape:guide-bbox="true" />
   
	
	


<g
   transform="matrix(4.4637923,0,0,4.9975799,-3306.2811,-1632.7003)"
   id="g2991"><g
     id="g4784" /><g
     id="g4634"><g
       id="g4519"
       transform="translate(477.65623,235.79285)"><g
         id="Grid"
         transform="matrix(0.30374688,0,0,0.40028531,263.75757,91.926833)"><rect
           x="0"
           stroke-miterlimit="10"
           width="512"
           height="512"
           id="rect4"
           y="0"
           style="fill:none;stroke:#a9ccdb;stroke-miterlimit:10" /><line
           stroke-miterlimit="10"
           x1="0"
           y1="32"
           x2="512"
           y2="32"
           id="line6"
           style="fill:none;stroke:#a9ccdb;stroke-miterlimit:10" /><line
           stroke-miterlimit="10"
           x1="0"
           y1="64"
           x2="512"
           y2="64"
           id="line8"
           style="fill:none;stroke:#a9ccdb;stroke-miterlimit:10" /><line
           stroke-miterlimit="10"
           x1="0"
           y1="96"
           x2="512"
           y2="96"
           id="line10"
           style="fill:none;stroke:#a9ccdb;stroke-miterlimit:10" /><line
           stroke-miterlimit="10"
           x1="0"
           y1="128"
           x2="512"
           y2="128"
           id="line12"
           style="fill:none;stroke:#a9ccdb;stroke-miterlimit:10" /><line
           stroke-miterlimit="10"
           x1="0"
           y1="160"
           x2="512"
           y2="160"
           id="line14"
           style="fill:none;stroke:#a9ccdb;stroke-miterlimit:10" /><line
           stroke-miterlimit="10"
           x1="0"
           y1="192"
           x2="512"
           y2="192"
           id="line16"
           style="fill:none;stroke:#a9ccdb;stroke-miterlimit:10" /><line
           stroke-miterlimit="10"
           x1="0"
           y1="224"
           x2="512"
           y2="224"
           id="line18"
           style="fill:none;stroke:#a9ccdb;stroke-miterlimit:10" /><line
           stroke-miterlimit="10"
           x1="0"
           y1="256"
           x2="512"
           y2="256"
           id="line20"
           style="fill:none;stroke:#a9ccdb;stroke-miterlimit:10" /><line
           stroke-miterlimit="10"
           x1="0"
           y1="288"
           x2="512"
           y2="288"
           id="line22"
           style="fill:none;stroke:#a9ccdb;stroke-miterlimit:10" /><line
           stroke-miterlimit="10"
           x1="0"
           y1="320"
           x2="512"
           y2="320"
           id="line24"
           style="fill:none;stroke:#a9ccdb;stroke-miterlimit:10" /><line
           stroke-miterlimit="10"
           x1="0"
           y1="352"
           x2="512"
           y2="352"
           id="line26"
           style="fill:none;stroke:#a9ccdb;stroke-miterlimit:10" /><line
           stroke-miterlimit="10"
           x1="0"
           y1="384"
           x2="512"
           y2="384"
           id="line28"
           style="fill:none;stroke:#a9ccdb;stroke-miterlimit:10" /><line
           stroke-miterlimit="10"
           x1="0"
           y1="416"
           x2="512"
           y2="416"
           id="line30"
           style="fill:none;stroke:#a9ccdb;stroke-miterlimit:10" /><line
           stroke-miterlimit="10"
           x1="0"
           y1="448"
           x2="512"
           y2="448"
           id="line32"
           style="fill:none;stroke:#ff0000;stroke-miterlimit:10" /><line
           stroke-miterlimit="10"
           x1="0"
           y1="480"
           x2="512"
           y2="480"
           id="line34"
           style="fill:none;stroke:#a9ccdb;stroke-miterlimit:10" /><line
           stroke-miterlimit="10"
           x1="32"
           y1="0"
           x2="32"
           y2="512"
           id="line36"
           style="fill:none;stroke:#a9ccdb;stroke-miterlimit:10" /><line
           stroke-miterlimit="10"
           x1="64"
           y1="0"
           x2="64"
           y2="512"
           id="line38"
           style="fill:none;stroke:#a9ccdb;stroke-miterlimit:10" /><line
           stroke-miterlimit="10"
           x1="96"
           y1="0"
           x2="96"
           y2="512"
           id="line40"
           style="fill:none;stroke:#a9ccdb;stroke-miterlimit:10" /><line
           stroke-miterlimit="10"
           x1="128"
           y1="0"
           x2="128"
           y2="512"
           id="line42"
           style="fill:none;stroke:#a9ccdb;stroke-miterlimit:10" /><line
           stroke-miterlimit="10"
           x1="160"
           y1="0"
           x2="160"
           y2="512"
           id="line44"
           style="fill:none;stroke:#a9ccdb;stroke-miterlimit:10" /><line
           stroke-miterlimit="10"
           x1="192"
           y1="0"
           x2="192"
           y2="512"
           id="line46"
           style="fill:none;stroke:#a9ccdb;stroke-miterlimit:10" /><line
           stroke-miterlimit="10"
           x1="224"
           y1="0"
           x2="224"
           y2="512"
           id="line48"
           style="fill:none;stroke:#a9ccdb;stroke-miterlimit:10" /><line
           stroke-miterlimit="10"
           x1="256"
           y1="0"
           x2="256"
           y2="512"
           id="line50"
           style="fill:none;stroke:#a9ccdb;stroke-miterlimit:10" /><line
           stroke-miterlimit="10"
           x1="288"
           y1="0"
           x2="288"
           y2="512"
           id="line52"
           style="fill:none;stroke:#a9ccdb;stroke-miterlimit:10" /><line
           stroke-miterlimit="10"
           x1="320"
           y1="0"
           x2="320"
           y2="512"
           id="line54"
           style="fill:none;stroke:#a9ccdb;stroke-miterlimit:10" /><line
           stroke-miterlimit="10"
           x1="352"
           y1="0"
           x2="352"
           y2="512"
           id="line56"
           style="fill:none;stroke:#a9ccdb;stroke-miterlimit:10" /><line
           stroke-miterlimit="10"
           x1="384"
           y1="0"
           x2="384"
           y2="512"
           id="line58"
           style="fill:none;stroke:#a9ccdb;stroke-miterlimit:10" /><line
           stroke-miterlimit="10"
           x1="416"
           y1="0"
           x2="416"
           y2="512"
           id="line60"
           style="fill:none;stroke:#a9ccdb;stroke-miterlimit:10" /><line
           stroke-miterlimit="10"
           x1="448"
           y1="0"
           x2="448"
           y2="512"
           id="line62"
           style="fill:none;stroke:#a9ccdb;stroke-miterlimit:10" /><line
           stroke-miterlimit="10"
           x1="480"
           y1="0"
           x2="480"
           y2="512"
           id="line64"
           style="fill:none;stroke:#a9ccdb;stroke-miterlimit:10" /></g><g
         id="g5180"
         transform="translate(101.34448,27.123307)" /></g></g><flowRoot
     style="font-size:28px;font-style:normal;font-variant:normal;font-weight:normal;font-stretch:normal;text-align:start;line-height:100%;letter-spacing:0px;word-spacing:0px;writing-mode:lr-tb;text-anchor:start;fill:#000000;fill-opacity:1;stroke:none;font-family:Arial;-inkscape-font-specification:Arial"
     id="flowRoot4904"
     xml:space="preserve"><flowRegion
       id="flowRegion4906"><rect
         style="font-size:28px"
         y="186.87357"
         x="31.103449"
         height="32.045979"
         width="594.73566"
         id="rect4908" /></flowRegion><flowPara
       id="flowPara4910" /></flowRoot></g>
  


<path
   style="fill:#936036;fill-opacity:0.78260869"
   d="m 84.060413,244.98418 c 16.772027,16.31976 40.121277,27.66309 57.411517,32.72104 7.38674,2.12588 34.23474,9.11326 41.38613,10.28987 15.14971,2.81649 47.8171,2.68426 62.51194,8.57095 8.72721,2.15954 16.7413,4.90841 24.50114,7.93418 14.44085,5.63085 28.00118,12.22063 43.6384,17.75569 14.34955,6.75619 26.80019,9.94798 42.16402,16.01186 31.25008,12.33396 61.94291,24.28379 89.52661,32.14578 43.38278,16.29883 66.55018,87.40706 64.37948,126.94588 -1.1819,21.25053 -7.8061,41.78089 -12.0019,61.71523 -7.3631,27.61742 -14.2613,65.09193 -25.0053,76.21276 -11.93854,10.50571 -17.37046,13.73054 -27.20059,14.17953 -11.42341,-0.40357 -21.55011,-6.70094 -26.11246,-10.55503 -7.33,-8.93776 -11.25206,-17.44597 -16.21316,-27.71884 -2.13665,-6.85536 -1.61199,-14.24764 0.0167,-21.19487 2.18396,-9.31574 6.35306,-17.83126 8.75254,-23.17897 6.18393,-15.0086 8.4498,-27.15711 5.7452,-38.17177 -2.17365,-8.85229 -7.55775,-16.97221 -16.69864,-25.25586 -11.98428,-10.71375 -27.43523,-18.95237 -39.50012,-19.18798 -16.27181,1.02683 -29.68341,9.91517 -43.54733,15.71259 -18.42433,7.70441 -28.48326,25.55589 -40.46246,42.45888 -41.38433,43.97202 -41.57171,52.6926 -24.44627,100.96686 4.92718,15.02825 10.94624,28.93045 17.67097,42.27638 4.92691,9.77798 10.23261,19.25735 15.76522,28.66221 6.07456,10.32613 12.42266,20.56242 18.84326,31.00546 5.77338,9.39035 11.60538,18.94787 17.34984,28.88819 5.19679,26.33733 14.37272,42.73529 26.49142,55.92043 12.41166,13.50389 27.91008,23.63773 45.3819,37.62781 16.44829,13.25876 31.15933,27.82476 45.27753,33.31278 9.05881,3.38492 38.08365,2.93497 46.60335,-0.90231 19.329,-8.70584 31.8405,-28.96559 38.0372,-41.43579 7.39101,-10.45286 25.08935,-29.06185 27.84201,-34.75105 1.86743,-14.69203 7.97596,-24.77139 15.39283,-32.85369 8.7431,-9.52752 19.30428,-16.27991 26.8794,-24.54176 28.48044,-31.37711 23.8018,-57.48632 31.01906,-100.46411 1.83662,-41.20139 15.58584,-74.16827 19.1204,-109.41012 1.46529,-22.10848 2.48267,-41.85448 5.90557,-62.91611 1.80699,-11.53746 2.39033,-24.15661 3.96457,-41.18088 -2.10015,-30.34172 -10.15888,-56.16658 -7.28051,-80.2202 2.4206,-17.13214 -12.29628,-42.25874 -34.02193,-51.44284 C 540.64814,265.76153 442.75978,240.72445 355.18188,211.32621 297.57774,192.03554 240.19355,174.56849 185.07952,157.87066 c -32.06157,-9.80862 -64.00234,-19.22974 -98.001577,-23.12761 -10.55854,-0.42353 -30.08297,14.1166 -33.24781,22.58969 -4.20857,10.82961 -4.91652,17.71859 -3.64112,24.46423 3.29305,11.62536 6.93115,22.09325 11.53629,31.66355 5.62464,11.68902 12.69179,22.03906 22.33511,31.52366 z"
   id="path3825"
   inkscape:connector-curvature="0"
   sodipodi:nodetypes="ccccscscccccccscsccsccssscsccsccsccccccccccccsc" /></svg>