<?xml version="1.0" encoding="UTF-8" standalone="no"?>
<svg
   xmlns:dc="http://purl.org/dc/elements/1.1/"
   xmlns:cc="http://creativecommons.org/ns#"
   xmlns:rdf="http://www.w3.org/1999/02/22-rdf-syntax-ns#"
   xmlns:svg="http://www.w3.org/2000/svg"
   xmlns="http://www.w3.org/2000/svg"
   xmlns:sodipodi="http://sodipodi.sourceforge.net/DTD/sodipodi-0.dtd"
   xmlns:inkscape="http://www.inkscape.org/namespaces/inkscape"
   version="1.1"
   id="Layer_1"
   x="0px"
   y="0px"
   width="800"
   height="1024"
   viewBox="0 0 800 1024"
   enable-background="new 0 0 512 512"
   xml:space="preserve"
   inkscape:version="0.48.0 r9654"
   sodipodi:docname="qofhebrew-x5e7.svg"><title
   id="title3743">Sinai 357</title><metadata
   id="metadata72"><rdf:RDF><cc:Work
       rdf:about=""><dc:format>image/svg+xml</dc:format><dc:type
         rdf:resource="http://purl.org/dc/dcmitype/StillImage" /><dc:title>Sinai 357</dc:title><dc:date>2017</dc:date><dc:creator><cc:Agent><dc:title>Celeste Claire Horner</dc:title></cc:Agent></dc:creator><dc:publisher><cc:Agent><dc:title>beitdina.net</dc:title></cc:Agent></dc:publisher></cc:Work></rdf:RDF></metadata><defs
   id="defs70" /><sodipodi:namedview
   pagecolor="#ffffff"
   bordercolor="#666666"
   borderopacity="1"
   objecttolerance="10"
   gridtolerance="10"
   guidetolerance="10"
   inkscape:pageopacity="0"
   inkscape:pageshadow="2"
   inkscape:window-width="921"
   inkscape:window-height="713"
   id="namedview68"
   showgrid="false"
   inkscape:zoom="0.44172912"
   inkscape:cx="104.34407"
   inkscape:cy="512"
   inkscape:window-x="116"
   inkscape:window-y="83"
   inkscape:window-maximized="0"
   inkscape:current-layer="Layer_1" />
   
	<g
   id="Grid"
   transform="matrix(1.5631518,0,0,2.0004578,0.50019527,4.8138064)">
		<rect
   x="0"
   stroke-miterlimit="10"
   width="512"
   height="512"
   id="rect4"
   y="0"
   style="fill:none;stroke:#a9ccdb;stroke-miterlimit:10" />
		<line
   stroke-miterlimit="10"
   x1="0"
   y1="32"
   x2="512"
   y2="32"
   id="line6"
   style="fill:none;stroke:#a9ccdb;stroke-miterlimit:10" />
		<line
   stroke-miterlimit="10"
   x1="0"
   y1="64"
   x2="512"
   y2="64"
   id="line8"
   style="fill:none;stroke:#a9ccdb;stroke-miterlimit:10" />
		<line
   stroke-miterlimit="10"
   x1="0"
   y1="96"
   x2="512"
   y2="96"
   id="line10"
   style="fill:none;stroke:#a9ccdb;stroke-miterlimit:10" />
		<line
   stroke-miterlimit="10"
   x1="0"
   y1="128"
   x2="512"
   y2="128"
   id="line12"
   style="fill:none;stroke:#a9ccdb;stroke-miterlimit:10" />
		<line
   stroke-miterlimit="10"
   x1="0"
   y1="160"
   x2="512"
   y2="160"
   id="line14"
   style="fill:none;stroke:#a9ccdb;stroke-miterlimit:10" />
		<line
   stroke-miterlimit="10"
   x1="0"
   y1="192"
   x2="512"
   y2="192"
   id="line16"
   style="fill:none;stroke:#a9ccdb;stroke-miterlimit:10" />
		<line
   stroke-miterlimit="10"
   x1="0"
   y1="224"
   x2="512"
   y2="224"
   id="line18"
   style="fill:none;stroke:#a9ccdb;stroke-miterlimit:10" />
		<line
   stroke-miterlimit="10"
   x1="0"
   y1="256"
   x2="512"
   y2="256"
   id="line20"
   style="fill:none;stroke:#a9ccdb;stroke-miterlimit:10" />
		<line
   stroke-miterlimit="10"
   x1="0"
   y1="288"
   x2="512"
   y2="288"
   id="line22"
   style="fill:none;stroke:#a9ccdb;stroke-miterlimit:10" />
		<line
   stroke-miterlimit="10"
   x1="0"
   y1="320"
   x2="512"
   y2="320"
   id="line24"
   style="fill:none;stroke:#a9ccdb;stroke-miterlimit:10" />
		<line
   stroke-miterlimit="10"
   x1="0"
   y1="352"
   x2="512"
   y2="352"
   id="line26"
   style="fill:none;stroke:#a9ccdb;stroke-miterlimit:10" />
		<line
   stroke-miterlimit="10"
   x1="0"
   y1="384"
   x2="512"
   y2="384"
   id="line28"
   style="fill:none;stroke:#a9ccdb;stroke-miterlimit:10" />
		<line
   stroke-miterlimit="10"
   x1="0"
   y1="416"
   x2="512"
   y2="416"
   id="line30"
   style="fill:none;stroke:#a9ccdb;stroke-miterlimit:10" />
		<line
   stroke-miterlimit="10"
   x1="0"
   y1="448"
   x2="512"
   y2="448"
   id="line32"
   style="fill:none;stroke:#ff0000;stroke-miterlimit:10" />
		<line
   stroke-miterlimit="10"
   x1="0"
   y1="480"
   x2="512"
   y2="480"
   id="line34"
   style="fill:none;stroke:#a9ccdb;stroke-miterlimit:10" />
		<line
   stroke-miterlimit="10"
   x1="32"
   y1="0"
   x2="32"
   y2="512"
   id="line36"
   style="fill:none;stroke:#a9ccdb;stroke-miterlimit:10" />
		<line
   stroke-miterlimit="10"
   x1="64"
   y1="0"
   x2="64"
   y2="512"
   id="line38"
   style="fill:none;stroke:#a9ccdb;stroke-miterlimit:10" />
		<line
   stroke-miterlimit="10"
   x1="96"
   y1="0"
   x2="96"
   y2="512"
   id="line40"
   style="fill:none;stroke:#a9ccdb;stroke-miterlimit:10" />
		<line
   stroke-miterlimit="10"
   x1="128"
   y1="0"
   x2="128"
   y2="512"
   id="line42"
   style="fill:none;stroke:#a9ccdb;stroke-miterlimit:10" />
		<line
   stroke-miterlimit="10"
   x1="160"
   y1="0"
   x2="160"
   y2="512"
   id="line44"
   style="fill:none;stroke:#a9ccdb;stroke-miterlimit:10" />
		<line
   stroke-miterlimit="10"
   x1="192"
   y1="0"
   x2="192"
   y2="512"
   id="line46"
   style="fill:none;stroke:#a9ccdb;stroke-miterlimit:10" />
		<line
   stroke-miterlimit="10"
   x1="224"
   y1="0"
   x2="224"
   y2="512"
   id="line48"
   style="fill:none;stroke:#a9ccdb;stroke-miterlimit:10" />
		<line
   stroke-miterlimit="10"
   x1="256"
   y1="0"
   x2="256"
   y2="512"
   id="line50"
   style="fill:none;stroke:#a9ccdb;stroke-miterlimit:10" />
		<line
   stroke-miterlimit="10"
   x1="288"
   y1="0"
   x2="288"
   y2="512"
   id="line52"
   style="fill:none;stroke:#a9ccdb;stroke-miterlimit:10" />
		<line
   stroke-miterlimit="10"
   x1="320"
   y1="0"
   x2="320"
   y2="512"
   id="line54"
   style="fill:none;stroke:#a9ccdb;stroke-miterlimit:10" />
		<line
   stroke-miterlimit="10"
   x1="352"
   y1="0"
   x2="352"
   y2="512"
   id="line56"
   style="fill:none;stroke:#a9ccdb;stroke-miterlimit:10" />
		<line
   stroke-miterlimit="10"
   x1="384"
   y1="0"
   x2="384"
   y2="512"
   id="line58"
   style="fill:none;stroke:#a9ccdb;stroke-miterlimit:10" />
		<line
   stroke-miterlimit="10"
   x1="416"
   y1="0"
   x2="416"
   y2="512"
   id="line60"
   style="fill:none;stroke:#a9ccdb;stroke-miterlimit:10" />
		<line
   stroke-miterlimit="10"
   x1="448"
   y1="0"
   x2="448"
   y2="512"
   id="line62"
   style="fill:none;stroke:#a9ccdb;stroke-miterlimit:10" />
		<line
   stroke-miterlimit="10"
   x1="480"
   y1="0"
   x2="480"
   y2="512"
   id="line64"
   style="fill:none;stroke:#a9ccdb;stroke-miterlimit:10" />
	</g>
	

<path
   style="fill:#598bcd;fill-opacity:0.71304345"
   d="m 169.74034,570.20064 c -5.43455,8.42355 -12.93925,8.11397 -18.52437,16.21904 -2.83178,35.83451 0.42488,47.85929 0.72608,79.56946 3.65596,10.67003 1.028,18.07647 -3.70366,23.16543 -7.40925,7.96877 -19.97679,10.25507 -21.65223,10.4917 -11.74529,-2.55705 -20.45067,-2.07599 -25.15414,0.62753 -6.886263,3.95817 -16.838433,20.60364 -27.463683,31.52989 -10.83987,11.2128 -11.37932,14.93009 -13.88346,22.07676 -0.96231,4.25849 -1.12094,9.43224 -0.52142,14.79727 1.59633,11.35054 7.15241,20.99236 13.99318,29.00231 8.02615,9.39793 17.82079,16.54945 25.06335,21.57871 39.492443,26.78011 93.110263,64.56145 124.653803,68.04948 6.65282,0.38342 12.23217,1.02868 17.18418,0.90374 8.52413,-0.21505 15.18942,-2.71221 22.27133,-12.75523 4.96832,-7.17549 8.08738,-15.99862 11.74901,-24.11789 2.28892,-5.09859 4.40933,-10.26213 6.38592,-16.07555 3.23611,-9.23467 6.53657,-23.98258 14.0897,-26.97926 8.37103,5.23254 18.46887,8.65458 28.76814,11.26611 10.2478,2.59848 20.69502,4.39454 29.83904,6.37327 15.6544,2.08205 30.82613,5.70116 45.733,9.43848 17.49317,4.38574 34.62161,8.93427 51.7373,11.35269 16.61583,1.88906 33.30467,2.9846 49.71838,3.20534 17.60628,0.23679 34.896,-0.53296 51.43948,-2.40953 16.99982,-6.19075 33.15669,-13.95896 46.67246,-24.72893 13.14657,-11.9971 25.44864,-28.53847 34.0059,-46.05021 7.26645,-14.87019 11.83264,-30.44007 11.92274,-44.52136 0.77591,-20.96193 -1.37244,-46.92318 -10.42074,-64.00296 -10.04012,-18.9584 -19.73471,-37.90892 -30.06031,-55.91806 -7.24268,-12.63214 -14.79583,-24.80112 -22.99645,-36.18477 -8.76886,-12.08717 -18.40409,-23.24369 -28.97847,-35.20354 -24.89815,-28.12415 -50.37926,-54.38157 -76.94031,-71.41153 -2.14347,-1.34495 -15.88961,-3.87666 -25.59501,-5.89583 -12.52911,-2.73616 -27.80401,-6.72736 -38.27086,-3.03753 -12.02478,4.64893 -17.9656,17.00864 -19.87982,17.38045 -2.16764,0.78157 -2.70922,5.35544 -3.96158,7.079 -1.57346,2.16549 -2.8281,5.35657 -1.7648,7.47768 1.78999,1.71884 -2.43625,5.62019 -0.8706,7.72509 2.28316,3.06929 0.25809,6.97393 2.46974,10.20837 3.38259,4.93988 -0.99466,8.10413 4.66437,13.94126 2.04704,6.80048 5.29677,12.87337 9.14332,18.51488 8.44938,9.2053 14.13276,20.04956 22.10068,30.54666 8.6466,11.39122 19.58142,22.37363 28.94498,30.40915 15.96617,13.30587 34.72867,23.58516 47.47181,38.00377 9.89748,11.75823 0.61355,30.80138 2.0536,50.61857 -2.68914,8.89985 -21.2311,7.27098 -23.10265,7.44221 -28.87086,-1.52627 -54.80237,-1.02773 -81.0095,-0.75817 -26.45251,0.27209 -46.39432,-3.08483 -76.71451,-5.59697 -15.11942,-5.17729 -11.73538,-44.85873 -10.00135,-56.45095 3.16556,-19.39406 -0.31559,-21.14416 3.17167,-41.08758 10.21432,-58.41503 28.73797,-135.64998 42.7955,-185.83368 8.59903,-33.33492 15.05748,-61.87902 20.81681,-92.55784 5.15115,-27.43912 9.74304,-56.5859 14.80701,-92.39538 1.27791,-22.44779 7.35578,-49.55538 -5.57411,-68.28945 -7.29444,-9.05681 -15.5546,-13.80828 -24.62213,-16.73987 -11.44086,-3.6989 -35.4862,-6.7644 -49.17963,-9.66124 -14.25372,-3.60714 -26.05833,2.63187 -26.89753,17.49609 -7.15994,37.83669 -18.47896,75.64144 -30.07666,112.81758 -27.75272,91.33628 -47.86583,180.04914 -77.25311,265.24473 -4.98066,14.49652 -3.56111,32.46195 -9.31939,44.11061 z"
   id="path3782"
   inkscape:connector-curvature="0"
   sodipodi:nodetypes="cccscscccsccsccccscscsccsccsccccccscscccsccccsccscsccsccccc" /></svg>