<?xml version="1.0" encoding="UTF-8" standalone="no"?>
<svg
   xmlns:dc="http://purl.org/dc/elements/1.1/"
   xmlns:cc="http://creativecommons.org/ns#"
   xmlns:rdf="http://www.w3.org/1999/02/22-rdf-syntax-ns#"
   xmlns:svg="http://www.w3.org/2000/svg"
   xmlns="http://www.w3.org/2000/svg"
   xmlns:sodipodi="http://sodipodi.sourceforge.net/DTD/sodipodi-0.dtd"
   xmlns:inkscape="http://www.inkscape.org/namespaces/inkscape"
   version="1.1"
   id="Layer_1"
   x="0px"
   y="0px"
   width="1024"
   height="1024"
   viewBox="0 0 1024 1024"
   enable-background="new 0 0 512 512"
   xml:space="preserve"
   inkscape:version="0.48.0 r9654"
   sodipodi:docname="reshhebrew-x5e8.svg"><title
   id="title3743">Sinai 357</title><metadata
   id="metadata72"><rdf:RDF><cc:Work
       rdf:about=""><dc:format>image/svg+xml</dc:format><dc:type
         rdf:resource="http://purl.org/dc/dcmitype/StillImage" /><dc:title>Sinai 357</dc:title><dc:date>2017</dc:date><dc:creator><cc:Agent><dc:title>Celeste Claire Horner</dc:title></cc:Agent></dc:creator><dc:publisher><cc:Agent><dc:title>beitdina.net</dc:title></cc:Agent></dc:publisher></cc:Work></rdf:RDF></metadata><defs
   id="defs70" /><sodipodi:namedview
   pagecolor="#ffffff"
   bordercolor="#666666"
   borderopacity="1"
   objecttolerance="10"
   gridtolerance="10"
   guidetolerance="10"
   inkscape:pageopacity="0"
   inkscape:pageshadow="2"
   inkscape:window-width="1152"
   inkscape:window-height="814"
   id="namedview68"
   showgrid="false"
   inkscape:zoom="0.31234964"
   inkscape:cx="-275.95979"
   inkscape:cy="768.54085"
   inkscape:window-x="-8"
   inkscape:window-y="-8"
   inkscape:window-maximized="1"
   inkscape:current-layer="Layer_1" />
   
	<g
   id="Grid"
   transform="matrix(2.0004581,0,0,2.0004578,0.50019527,4.8138064)">
		<rect
   x="0"
   stroke-miterlimit="10"
   width="512"
   height="512"
   id="rect4"
   y="0"
   style="fill:none;stroke:#a9ccdb;stroke-miterlimit:10" />
		<line
   stroke-miterlimit="10"
   x1="0"
   y1="32"
   x2="512"
   y2="32"
   id="line6"
   style="fill:none;stroke:#a9ccdb;stroke-miterlimit:10" />
		<line
   stroke-miterlimit="10"
   x1="0"
   y1="64"
   x2="512"
   y2="64"
   id="line8"
   style="fill:none;stroke:#a9ccdb;stroke-miterlimit:10" />
		<line
   stroke-miterlimit="10"
   x1="0"
   y1="96"
   x2="512"
   y2="96"
   id="line10"
   style="fill:none;stroke:#a9ccdb;stroke-miterlimit:10" />
		<line
   stroke-miterlimit="10"
   x1="0"
   y1="128"
   x2="512"
   y2="128"
   id="line12"
   style="fill:none;stroke:#a9ccdb;stroke-miterlimit:10" />
		<line
   stroke-miterlimit="10"
   x1="0"
   y1="160"
   x2="512"
   y2="160"
   id="line14"
   style="fill:none;stroke:#a9ccdb;stroke-miterlimit:10" />
		<line
   stroke-miterlimit="10"
   x1="0"
   y1="192"
   x2="512"
   y2="192"
   id="line16"
   style="fill:none;stroke:#a9ccdb;stroke-miterlimit:10" />
		<line
   stroke-miterlimit="10"
   x1="0"
   y1="224"
   x2="512"
   y2="224"
   id="line18"
   style="fill:none;stroke:#a9ccdb;stroke-miterlimit:10" />
		<line
   stroke-miterlimit="10"
   x1="0"
   y1="256"
   x2="512"
   y2="256"
   id="line20"
   style="fill:none;stroke:#a9ccdb;stroke-miterlimit:10" />
		<line
   stroke-miterlimit="10"
   x1="0"
   y1="288"
   x2="512"
   y2="288"
   id="line22"
   style="fill:none;stroke:#a9ccdb;stroke-miterlimit:10" />
		<line
   stroke-miterlimit="10"
   x1="0"
   y1="320"
   x2="512"
   y2="320"
   id="line24"
   style="fill:none;stroke:#a9ccdb;stroke-miterlimit:10" />
		<line
   stroke-miterlimit="10"
   x1="0"
   y1="352"
   x2="512"
   y2="352"
   id="line26"
   style="fill:none;stroke:#a9ccdb;stroke-miterlimit:10" />
		<line
   stroke-miterlimit="10"
   x1="0"
   y1="384"
   x2="512"
   y2="384"
   id="line28"
   style="fill:none;stroke:#a9ccdb;stroke-miterlimit:10" />
		<line
   stroke-miterlimit="10"
   x1="0"
   y1="416"
   x2="512"
   y2="416"
   id="line30"
   style="fill:none;stroke:#a9ccdb;stroke-miterlimit:10" />
		<line
   stroke-miterlimit="10"
   x1="0"
   y1="448"
   x2="512"
   y2="448"
   id="line32"
   style="fill:none;stroke:#ff0000;stroke-miterlimit:10" />
		<line
   stroke-miterlimit="10"
   x1="0"
   y1="480"
   x2="512"
   y2="480"
   id="line34"
   style="fill:none;stroke:#a9ccdb;stroke-miterlimit:10" />
		<line
   stroke-miterlimit="10"
   x1="32"
   y1="0"
   x2="32"
   y2="512"
   id="line36"
   style="fill:none;stroke:#a9ccdb;stroke-miterlimit:10" />
		<line
   stroke-miterlimit="10"
   x1="64"
   y1="0"
   x2="64"
   y2="512"
   id="line38"
   style="fill:none;stroke:#a9ccdb;stroke-miterlimit:10" />
		<line
   stroke-miterlimit="10"
   x1="96"
   y1="0"
   x2="96"
   y2="512"
   id="line40"
   style="fill:none;stroke:#a9ccdb;stroke-miterlimit:10" />
		<line
   stroke-miterlimit="10"
   x1="128"
   y1="0"
   x2="128"
   y2="512"
   id="line42"
   style="fill:none;stroke:#a9ccdb;stroke-miterlimit:10" />
		<line
   stroke-miterlimit="10"
   x1="160"
   y1="0"
   x2="160"
   y2="512"
   id="line44"
   style="fill:none;stroke:#a9ccdb;stroke-miterlimit:10" />
		<line
   stroke-miterlimit="10"
   x1="192"
   y1="0"
   x2="192"
   y2="512"
   id="line46"
   style="fill:none;stroke:#a9ccdb;stroke-miterlimit:10" />
		<line
   stroke-miterlimit="10"
   x1="224"
   y1="0"
   x2="224"
   y2="512"
   id="line48"
   style="fill:none;stroke:#a9ccdb;stroke-miterlimit:10" />
		<line
   stroke-miterlimit="10"
   x1="256"
   y1="0"
   x2="256"
   y2="512"
   id="line50"
   style="fill:none;stroke:#a9ccdb;stroke-miterlimit:10" />
		<line
   stroke-miterlimit="10"
   x1="288"
   y1="0"
   x2="288"
   y2="512"
   id="line52"
   style="fill:none;stroke:#a9ccdb;stroke-miterlimit:10" />
		<line
   stroke-miterlimit="10"
   x1="320"
   y1="0"
   x2="320"
   y2="512"
   id="line54"
   style="fill:none;stroke:#a9ccdb;stroke-miterlimit:10" />
		<line
   stroke-miterlimit="10"
   x1="352"
   y1="0"
   x2="352"
   y2="512"
   id="line56"
   style="fill:none;stroke:#a9ccdb;stroke-miterlimit:10" />
		<line
   stroke-miterlimit="10"
   x1="384"
   y1="0"
   x2="384"
   y2="512"
   id="line58"
   style="fill:none;stroke:#a9ccdb;stroke-miterlimit:10" />
		<line
   stroke-miterlimit="10"
   x1="416"
   y1="0"
   x2="416"
   y2="512"
   id="line60"
   style="fill:none;stroke:#a9ccdb;stroke-miterlimit:10" />
		<line
   stroke-miterlimit="10"
   x1="448"
   y1="0"
   x2="448"
   y2="512"
   id="line62"
   style="fill:none;stroke:#a9ccdb;stroke-miterlimit:10" />
		<line
   stroke-miterlimit="10"
   x1="480"
   y1="0"
   x2="480"
   y2="512"
   id="line64"
   style="fill:none;stroke:#a9ccdb;stroke-miterlimit:10" />
	</g>
	

<path
   style="fill:#5ebacc;fill-opacity:0.62173917"
   d="m 241.98323,885.74935 c 7.03112,-4.76868 19.2571,-21.13439 17.69556,-64.5213 -0.30223,-8.4008 -0.43424,-14.36843 -0.41305,-18.60681 0.97508,-11.33319 -0.87067,-10.07444 9.7177,-19.49078 54.96523,5.67077 121.49227,7.56073 174.33739,3.50143 26.80279,-3.50438 50.53162,-15.82413 68.94184,-32.19399 15.76419,-13.95379 24.89384,-28.80506 31.79775,-44.42064 8.23719,-20.60922 16.18695,-41.88316 23.54053,-63.27982 6.88642,-20.03735 13.24998,-40.18231 18.83712,-59.98974 5.95918,-20.82673 10.91345,-42.10876 15.15,-63.09931 4.08736,-23.37482 8.23657,-47.67484 12.07015,-72.1364 9.35924,-59.72015 24.84101,-134.81001 24.94446,-185.34297 -2.50135,-29.14178 9.27403,-41.91102 -2.56295,-68.24134 -9.02788,-20.08459 -46.63523,-41.68526 -66.42446,-51.43142 -39.49737,-11.91216 -53.91473,-8.81116 -58.20997,2.44117 0.82357,10.74674 -3.27905,35.90648 -4.45529,46.50927 -2.75681,41.68075 -13.24383,84.7726 -25.63774,125.29542 -7.25371,23.71656 -15.1606,46.55315 -22.55323,67.71184 -8.1754,23.39903 -15.72187,44.74605 -21.06053,62.96188 -9.31814,18.38817 -14.06865,47.51597 -20.0252,74.22272 -6.22328,27.90267 -15.3638,49.96108 -30.80457,57.5693 -94.65959,4.25019 -176.83487,-8.28285 -255.27369,10.71443 -21.15252,5.08745 -40.051044,14.39814 -51.547974,31.85995 -16.24183,26.75835 -13.43445,63.95176 -14.43095,94.01055 2.68616,43.00129 33.77278,106.39894 78.457654,143.27436 29.11115,24.02347 65.83642,38.63307 97.90945,22.68222 z"
   id="path3773"
   inkscape:connector-curvature="0"
   sodipodi:nodetypes="cccccccsccscscccsscsccccscc" /></svg>