<?xml version="1.0" encoding="UTF-8" standalone="no"?>
<svg
   xmlns:dc="http://purl.org/dc/elements/1.1/"
   xmlns:cc="http://creativecommons.org/ns#"
   xmlns:rdf="http://www.w3.org/1999/02/22-rdf-syntax-ns#"
   xmlns:svg="http://www.w3.org/2000/svg"
   xmlns="http://www.w3.org/2000/svg"
   xmlns:sodipodi="http://sodipodi.sourceforge.net/DTD/sodipodi-0.dtd"
   xmlns:inkscape="http://www.inkscape.org/namespaces/inkscape"
   version="1.1"
   id="Layer_1"
   x="0px"
   y="0px"
   width="900"
   height="1024"
   viewBox="0 0 900 1024"
   enable-background="new 0 0 512 512"
   xml:space="preserve"
   inkscape:version="0.48.0 r9654"
   sodipodi:docname="shinhebrew-x5e9.svg"><title
   id="title3743">Sinai 357</title><metadata
   id="metadata72"><rdf:RDF><cc:Work
       rdf:about=""><dc:format>image/svg+xml</dc:format><dc:type
         rdf:resource="http://purl.org/dc/dcmitype/StillImage" /><dc:title>Sinai 357</dc:title><dc:date>2017</dc:date><dc:creator><cc:Agent><dc:title>Celeste Claire Horner</dc:title></cc:Agent></dc:creator><dc:publisher><cc:Agent><dc:title>beitdina.net</dc:title></cc:Agent></dc:publisher></cc:Work></rdf:RDF></metadata><defs
   id="defs70" /><sodipodi:namedview
   pagecolor="#ffffff"
   bordercolor="#666666"
   borderopacity="1"
   objecttolerance="10"
   gridtolerance="10"
   guidetolerance="10"
   inkscape:pageopacity="0"
   inkscape:pageshadow="2"
   inkscape:window-width="1152"
   inkscape:window-height="814"
   id="namedview68"
   showgrid="false"
   inkscape:zoom="0.31866642"
   inkscape:cx="204.71991"
   inkscape:cy="461.59983"
   inkscape:window-x="-8"
   inkscape:window-y="-8"
   inkscape:window-maximized="1"
   inkscape:current-layer="Layer_1" />
   
	<g
   id="Grid"
   transform="matrix(1.7666557,0,0,2.0004578,0.50019527,4.8138064)">
		<rect
   x="0"
   stroke-miterlimit="10"
   width="512"
   height="512"
   id="rect4"
   y="0"
   style="fill:none;stroke:#a9ccdb;stroke-miterlimit:10" />
		<line
   stroke-miterlimit="10"
   x1="0"
   y1="32"
   x2="512"
   y2="32"
   id="line6"
   style="fill:none;stroke:#a9ccdb;stroke-miterlimit:10" />
		<line
   stroke-miterlimit="10"
   x1="0"
   y1="64"
   x2="512"
   y2="64"
   id="line8"
   style="fill:none;stroke:#a9ccdb;stroke-miterlimit:10" />
		<line
   stroke-miterlimit="10"
   x1="0"
   y1="96"
   x2="512"
   y2="96"
   id="line10"
   style="fill:none;stroke:#a9ccdb;stroke-miterlimit:10" />
		<line
   stroke-miterlimit="10"
   x1="0"
   y1="128"
   x2="512"
   y2="128"
   id="line12"
   style="fill:none;stroke:#a9ccdb;stroke-miterlimit:10" />
		<line
   stroke-miterlimit="10"
   x1="0"
   y1="160"
   x2="512"
   y2="160"
   id="line14"
   style="fill:none;stroke:#a9ccdb;stroke-miterlimit:10" />
		<line
   stroke-miterlimit="10"
   x1="0"
   y1="192"
   x2="512"
   y2="192"
   id="line16"
   style="fill:none;stroke:#a9ccdb;stroke-miterlimit:10" />
		<line
   stroke-miterlimit="10"
   x1="0"
   y1="224"
   x2="512"
   y2="224"
   id="line18"
   style="fill:none;stroke:#a9ccdb;stroke-miterlimit:10" />
		<line
   stroke-miterlimit="10"
   x1="0"
   y1="256"
   x2="512"
   y2="256"
   id="line20"
   style="fill:none;stroke:#a9ccdb;stroke-miterlimit:10" />
		<line
   stroke-miterlimit="10"
   x1="0"
   y1="288"
   x2="512"
   y2="288"
   id="line22"
   style="fill:none;stroke:#a9ccdb;stroke-miterlimit:10" />
		<line
   stroke-miterlimit="10"
   x1="0"
   y1="320"
   x2="512"
   y2="320"
   id="line24"
   style="fill:none;stroke:#a9ccdb;stroke-miterlimit:10" />
		<line
   stroke-miterlimit="10"
   x1="0"
   y1="352"
   x2="512"
   y2="352"
   id="line26"
   style="fill:none;stroke:#a9ccdb;stroke-miterlimit:10" />
		<line
   stroke-miterlimit="10"
   x1="0"
   y1="384"
   x2="512"
   y2="384"
   id="line28"
   style="fill:none;stroke:#a9ccdb;stroke-miterlimit:10" />
		<line
   stroke-miterlimit="10"
   x1="0"
   y1="416"
   x2="512"
   y2="416"
   id="line30"
   style="fill:none;stroke:#a9ccdb;stroke-miterlimit:10" />
		<line
   stroke-miterlimit="10"
   x1="0"
   y1="448"
   x2="512"
   y2="448"
   id="line32"
   style="fill:none;stroke:#ff0000;stroke-miterlimit:10" />
		<line
   stroke-miterlimit="10"
   x1="0"
   y1="480"
   x2="512"
   y2="480"
   id="line34"
   style="fill:none;stroke:#a9ccdb;stroke-miterlimit:10" />
		<line
   stroke-miterlimit="10"
   x1="32"
   y1="0"
   x2="32"
   y2="512"
   id="line36"
   style="fill:none;stroke:#a9ccdb;stroke-miterlimit:10" />
		<line
   stroke-miterlimit="10"
   x1="64"
   y1="0"
   x2="64"
   y2="512"
   id="line38"
   style="fill:none;stroke:#a9ccdb;stroke-miterlimit:10" />
		<line
   stroke-miterlimit="10"
   x1="96"
   y1="0"
   x2="96"
   y2="512"
   id="line40"
   style="fill:none;stroke:#a9ccdb;stroke-miterlimit:10" />
		<line
   stroke-miterlimit="10"
   x1="128"
   y1="0"
   x2="128"
   y2="512"
   id="line42"
   style="fill:none;stroke:#a9ccdb;stroke-miterlimit:10" />
		<line
   stroke-miterlimit="10"
   x1="160"
   y1="0"
   x2="160"
   y2="512"
   id="line44"
   style="fill:none;stroke:#a9ccdb;stroke-miterlimit:10" />
		<line
   stroke-miterlimit="10"
   x1="192"
   y1="0"
   x2="192"
   y2="512"
   id="line46"
   style="fill:none;stroke:#a9ccdb;stroke-miterlimit:10" />
		<line
   stroke-miterlimit="10"
   x1="224"
   y1="0"
   x2="224"
   y2="512"
   id="line48"
   style="fill:none;stroke:#a9ccdb;stroke-miterlimit:10" />
		<line
   stroke-miterlimit="10"
   x1="256"
   y1="0"
   x2="256"
   y2="512"
   id="line50"
   style="fill:none;stroke:#a9ccdb;stroke-miterlimit:10" />
		<line
   stroke-miterlimit="10"
   x1="288"
   y1="0"
   x2="288"
   y2="512"
   id="line52"
   style="fill:none;stroke:#a9ccdb;stroke-miterlimit:10" />
		<line
   stroke-miterlimit="10"
   x1="320"
   y1="0"
   x2="320"
   y2="512"
   id="line54"
   style="fill:none;stroke:#a9ccdb;stroke-miterlimit:10" />
		<line
   stroke-miterlimit="10"
   x1="352"
   y1="0"
   x2="352"
   y2="512"
   id="line56"
   style="fill:none;stroke:#a9ccdb;stroke-miterlimit:10" />
		<line
   stroke-miterlimit="10"
   x1="384"
   y1="0"
   x2="384"
   y2="512"
   id="line58"
   style="fill:none;stroke:#a9ccdb;stroke-miterlimit:10" />
		<line
   stroke-miterlimit="10"
   x1="416"
   y1="0"
   x2="416"
   y2="512"
   id="line60"
   style="fill:none;stroke:#a9ccdb;stroke-miterlimit:10" />
		<line
   stroke-miterlimit="10"
   x1="448"
   y1="0"
   x2="448"
   y2="512"
   id="line62"
   style="fill:none;stroke:#a9ccdb;stroke-miterlimit:10" />
		<line
   stroke-miterlimit="10"
   x1="480"
   y1="0"
   x2="480"
   y2="512"
   id="line64"
   style="fill:none;stroke:#a9ccdb;stroke-miterlimit:10" />
	</g>
	

	
<path
   style="fill:#921d22;fill-opacity:1"
   d="m 159.51045,895.69615 c 23.13594,-4.73001 43.78955,-17.66518 59.28539,-36.64454 3.84475,-4.82787 7.04639,-9.75981 9.51003,-14.58541 21.90857,-46.30606 18.88374,-89.85665 11.21136,-133.06068 -3.58649,-20.19591 -8.18853,-40.3161 -11.73401,-60.60662 -2.15969,-12.63791 -3.5463,-25.33171 -3.09292,-38.31399 5.81954,-25.67871 29.87393,-14.18027 37.10977,-10.06138 10.58944,9.03522 23.71622,29.40914 32.54822,40.70335 13.72647,30.79592 25.74761,64.77049 38.16347,97.66291 14.07763,37.29483 28.6627,73.19845 46.8164,101.50002 3.53961,5.6777 7.81981,11.22775 12.09001,16.3597 14.95692,18.06144 36.20927,35.49682 57.00352,38.67396 18.18965,2.47434 37.28326,-2.80618 54.90319,-16.64947 11.86488,-11.83755 18.63418,-25.08964 22.5318,-38.94469 3.62706,-21.12071 7.72798,-41.9188 4.63247,-60.89703 -9.6426,-58.96663 -33.10076,-80.20713 -62.58837,-118.3988 -19.16135,-20.40686 -45.19141,-45.94496 -60.8915,-61.95586 -13.03084,-13.28882 -26.71888,-26.12893 -44.13408,-40.2889 -12.55078,-9.06402 -25.01907,-17.47002 -36.59513,-26.17296 -20.38589,-15.32621 -38.00474,-31.5733 -48.43422,-53.95675 -4.43881,-12.23187 -5.26052,-25.42727 -4.38915,-38.76665 1.35861,-20.79844 6.83314,-41.94688 9.13071,-60.33882 0.10907,-1.43719 23.08259,-16.88167 38.89156,-9.84671 13.93974,4.01728 32.033,29.76156 47.18075,36.73389 84.28327,56.13101 145.83481,108.12365 205.86727,180.12477 15.17421,18.99317 26.7184,39.86775 36.24421,61.62718 7.18406,16.4103 13.22013,33.32387 18.79949,50.31324 19.55814,47.18647 26.9263,98.59557 52.16397,135.81859 11.38321,16.76231 25.18529,31.48582 41.2098,43.21907 19.77563,10.51962 37.74388,18.36251 57.67251,14.10273 12.67018,-3.47878 24.11671,-10.45267 33.54882,-19.36319 10.6714,-10.08127 18.76428,-22.6415 23.13346,-35.42364 6.07113,-23.32173 8.6002,-45.11533 6.57844,-66.94575 -0.64953,-6.83468 -1.73294,-14.15778 -3.2604,-22.47673 C 825.57839,712.52561 806.26353,678.2215 783.84148,645.67597 765.28215,618.73718 744.594,593.00325 722.43983,568.33314 638.47761,474.83576 531.20163,394.39954 441.20645,323.78504 406.26879,302.02103 369.1233,265.66967 337.16487,296.75537 c -12.11397,11.85695 -24.20346,25.49247 -31.06652,15.97517 -8.93717,1.48279 2.27542,-49.9192 -3.43982,-57.72276 -16.42118,-21.55096 -25.39956,-32.6469 -40.14457,-52.2229 -2.25194,-2.83467 -3.70276,-6.34705 -6.17455,-7.64711 -10.95615,-2.19133 -70.65199,-3.72632 -77.83657,1.1667 -2.56941,1.90416 -2.90143,3.38037 -4.97787,6.45276 -4.81384,25.29305 -6.26957,46.96352 -8.35514,69.58952 C 134.018,425.93532 96.401189,576.9515 60.481379,716.14288 c -6.56181,21.56509 -9.71191,44.21916 -9.78141,65.01329 -0.01,22.81432 3.2376,45.7178 10.88484,66.0362 7.0698,18.85587 22.7027,34.58029 38.451381,42.16141 17.62719,8.12134 42.71981,9.60536 59.47426,6.34237 z"
   id="path3762"
   inkscape:connector-curvature="0"
   sodipodi:nodetypes="cccsccccscccccccscscsccccsccccscccsscccccccccccccc" /></svg>