<?xml version="1.0" encoding="UTF-8" standalone="no"?>
<svg
   xmlns:dc="http://purl.org/dc/elements/1.1/"
   xmlns:cc="http://creativecommons.org/ns#"
   xmlns:rdf="http://www.w3.org/1999/02/22-rdf-syntax-ns#"
   xmlns:svg="http://www.w3.org/2000/svg"
   xmlns="http://www.w3.org/2000/svg"
   xmlns:sodipodi="http://sodipodi.sourceforge.net/DTD/sodipodi-0.dtd"
   xmlns:inkscape="http://www.inkscape.org/namespaces/inkscape"
   version="1.1"
   id="Layer_1"
   x="0px"
   y="0px"
   width="1000"
   height="1024"
   viewBox="0 0 1000 1024"
   enable-background="new 0 0 512 512"
   xml:space="preserve"
   inkscape:version="0.48.0 r9654"
   sodipodi:docname="tavhebrew-x5ea.svg"><title
   id="title3743">Sinai 357</title><metadata
   id="metadata72"><rdf:RDF><cc:Work
       rdf:about=""><dc:format>image/svg+xml</dc:format><dc:type
         rdf:resource="http://purl.org/dc/dcmitype/StillImage" /><dc:title>Sinai 357</dc:title><dc:date>2017</dc:date><dc:creator><cc:Agent><dc:title>Celeste Claire Horner</dc:title></cc:Agent></dc:creator><dc:publisher><cc:Agent><dc:title>beitdina.net</dc:title></cc:Agent></dc:publisher></cc:Work></rdf:RDF></metadata><defs
   id="defs70" /><sodipodi:namedview
   pagecolor="#ffffff"
   bordercolor="#666666"
   borderopacity="1"
   objecttolerance="10"
   gridtolerance="10"
   guidetolerance="10"
   inkscape:pageopacity="0"
   inkscape:pageshadow="2"
   inkscape:window-width="1152"
   inkscape:window-height="814"
   id="namedview68"
   showgrid="false"
   inkscape:zoom="0.25488282"
   inkscape:cx="937.80029"
   inkscape:cy="181.23511"
   inkscape:window-x="-8"
   inkscape:window-y="-8"
   inkscape:window-maximized="1"
   inkscape:current-layer="Layer_1" />
   
	<g
   id="Grid"
   transform="matrix(1.9524943,0,0,2.0181509,2.4516249,-0.3169608)">
		<rect
   x="0"
   stroke-miterlimit="10"
   width="512"
   height="512"
   id="rect4"
   y="0"
   style="fill:none;stroke:#a9ccdb;stroke-miterlimit:10" />
		<line
   stroke-miterlimit="10"
   x1="0"
   y1="32"
   x2="512"
   y2="32"
   id="line6"
   style="fill:none;stroke:#a9ccdb;stroke-miterlimit:10" />
		<line
   stroke-miterlimit="10"
   x1="0"
   y1="64"
   x2="512"
   y2="64"
   id="line8"
   style="fill:none;stroke:#a9ccdb;stroke-miterlimit:10" />
		<line
   stroke-miterlimit="10"
   x1="0"
   y1="96"
   x2="512"
   y2="96"
   id="line10"
   style="fill:none;stroke:#a9ccdb;stroke-miterlimit:10" />
		<line
   stroke-miterlimit="10"
   x1="0"
   y1="128"
   x2="512"
   y2="128"
   id="line12"
   style="fill:none;stroke:#a9ccdb;stroke-miterlimit:10" />
		<line
   stroke-miterlimit="10"
   x1="0"
   y1="160"
   x2="512"
   y2="160"
   id="line14"
   style="fill:none;stroke:#a9ccdb;stroke-miterlimit:10" />
		<line
   stroke-miterlimit="10"
   x1="0"
   y1="192"
   x2="512"
   y2="192"
   id="line16"
   style="fill:none;stroke:#a9ccdb;stroke-miterlimit:10" />
		<line
   stroke-miterlimit="10"
   x1="0"
   y1="224"
   x2="512"
   y2="224"
   id="line18"
   style="fill:none;stroke:#a9ccdb;stroke-miterlimit:10" />
		<line
   stroke-miterlimit="10"
   x1="0"
   y1="256"
   x2="512"
   y2="256"
   id="line20"
   style="fill:none;stroke:#a9ccdb;stroke-miterlimit:10" />
		<line
   stroke-miterlimit="10"
   x1="0"
   y1="288"
   x2="512"
   y2="288"
   id="line22"
   style="fill:none;stroke:#a9ccdb;stroke-miterlimit:10" />
		<line
   stroke-miterlimit="10"
   x1="0"
   y1="320"
   x2="512"
   y2="320"
   id="line24"
   style="fill:none;stroke:#a9ccdb;stroke-miterlimit:10" />
		<line
   stroke-miterlimit="10"
   x1="0"
   y1="352"
   x2="512"
   y2="352"
   id="line26"
   style="fill:none;stroke:#a9ccdb;stroke-miterlimit:10" />
		<line
   stroke-miterlimit="10"
   x1="0"
   y1="384"
   x2="512"
   y2="384"
   id="line28"
   style="fill:none;stroke:#a9ccdb;stroke-miterlimit:10" />
		<line
   stroke-miterlimit="10"
   x1="0"
   y1="416"
   x2="512"
   y2="416"
   id="line30"
   style="fill:none;stroke:#a9ccdb;stroke-miterlimit:10" />
		<line
   stroke-miterlimit="10"
   x1="0"
   y1="448"
   x2="512"
   y2="448"
   id="line32"
   style="fill:none;stroke:#ff0000;stroke-miterlimit:10" />
		<line
   stroke-miterlimit="10"
   x1="0"
   y1="480"
   x2="512"
   y2="480"
   id="line34"
   style="fill:none;stroke:#a9ccdb;stroke-miterlimit:10" />
		<line
   stroke-miterlimit="10"
   x1="32"
   y1="0"
   x2="32"
   y2="512"
   id="line36"
   style="fill:none;stroke:#a9ccdb;stroke-miterlimit:10" />
		<line
   stroke-miterlimit="10"
   x1="64"
   y1="0"
   x2="64"
   y2="512"
   id="line38"
   style="fill:none;stroke:#a9ccdb;stroke-miterlimit:10" />
		<line
   stroke-miterlimit="10"
   x1="96"
   y1="0"
   x2="96"
   y2="512"
   id="line40"
   style="fill:none;stroke:#a9ccdb;stroke-miterlimit:10" />
		<line
   stroke-miterlimit="10"
   x1="128"
   y1="0"
   x2="128"
   y2="512"
   id="line42"
   style="fill:none;stroke:#a9ccdb;stroke-miterlimit:10" />
		<line
   stroke-miterlimit="10"
   x1="160"
   y1="0"
   x2="160"
   y2="512"
   id="line44"
   style="fill:none;stroke:#a9ccdb;stroke-miterlimit:10" />
		<line
   stroke-miterlimit="10"
   x1="192"
   y1="0"
   x2="192"
   y2="512"
   id="line46"
   style="fill:none;stroke:#a9ccdb;stroke-miterlimit:10" />
		<line
   stroke-miterlimit="10"
   x1="224"
   y1="0"
   x2="224"
   y2="512"
   id="line48"
   style="fill:none;stroke:#a9ccdb;stroke-miterlimit:10" />
		<line
   stroke-miterlimit="10"
   x1="256"
   y1="0"
   x2="256"
   y2="512"
   id="line50"
   style="fill:none;stroke:#a9ccdb;stroke-miterlimit:10" />
		<line
   stroke-miterlimit="10"
   x1="288"
   y1="0"
   x2="288"
   y2="512"
   id="line52"
   style="fill:none;stroke:#a9ccdb;stroke-miterlimit:10" />
		<line
   stroke-miterlimit="10"
   x1="320"
   y1="0"
   x2="320"
   y2="512"
   id="line54"
   style="fill:none;stroke:#a9ccdb;stroke-miterlimit:10" />
		<line
   stroke-miterlimit="10"
   x1="352"
   y1="0"
   x2="352"
   y2="512"
   id="line56"
   style="fill:none;stroke:#a9ccdb;stroke-miterlimit:10" />
		<line
   stroke-miterlimit="10"
   x1="384"
   y1="0"
   x2="384"
   y2="512"
   id="line58"
   style="fill:none;stroke:#a9ccdb;stroke-miterlimit:10" />
		<line
   stroke-miterlimit="10"
   x1="416"
   y1="0"
   x2="416"
   y2="512"
   id="line60"
   style="fill:none;stroke:#a9ccdb;stroke-miterlimit:10" />
		<line
   stroke-miterlimit="10"
   x1="448"
   y1="0"
   x2="448"
   y2="512"
   id="line62"
   style="fill:none;stroke:#a9ccdb;stroke-miterlimit:10" />
		<line
   stroke-miterlimit="10"
   x1="480"
   y1="0"
   x2="480"
   y2="512"
   id="line64"
   style="fill:none;stroke:#a9ccdb;stroke-miterlimit:10" />
	</g>

<path
   style="fill:#57b5cc;fill-opacity:0.66956518"
   d="m 139.18034,236.87252 c 38.4937,9.99421 76.9395,-0.50349 115.19673,2.14145 l 22.19394,4.42564 c 0.8863,12.33057 20.59796,3.58666 25.55136,14.21987 12.4459,26.71647 -5.8231,81.5674 -5.8231,109.88626 0.2709,44.23706 -40.2494,96.13031 -43.0242,136.69997 -8.817,13.60243 -37.22573,32.16286 -40.99653,48.38798 -7.0708,14.59953 -9.6724,23.57491 -7.1404,38.09809 3.2591,18.39393 9.3917,34.86668 7.5653,58.9329 -2.2623,25.73654 -10.0439,49.90281 -17.7998,73.63331 -5.3284,15.40712 -5.7752,16.04664 -8.3475,27.50752 -1.9549,8.71006 -1.4787,13.59058 0.062,19.07983 0.7896,2.81374 1.8587,5.78754 3.0233,9.51911 8.9108,30.71836 2.8672,62.48809 14.178,88.11209 0.9811,2.2596 1.6834,4.58868 1.9334,7.27355 7.5716,31.54019 66.60643,61.2911 99.43433,66.51784 15.7869,2.28487 38.7838,4.753 47.0316,-7.41354 16.0849,-26.6836 21.364,-85.99591 22.3431,-106.76529 4.4774,-11.42333 10.072,-22.19549 17.6983,-30.31159 7.6384,-8.12878 14.6564,-10.65131 27.2904,-11.43665 6.5619,3.86512 16.143,4.2852 23.3332,7.20658 69.2992,20.80079 187.7234,56.91775 252.5161,18.61622 16.02818,-7.93114 24.51144,-20.17318 29.73553,-33.66956 7.84777,-20.27466 19.43757,-50.31559 27.10444,-65.88963 27.16336,-23.13239 41.68319,-45.71661 54.33468,-68.55721 5.0548,-20.98666 9.89186,-42.99642 14.39346,-65.47198 16.8145,-83.95132 28.94868,-174.40157 30.26779,-242.30823 0.1922,-13.27753 27.8847,-34.97453 25.8041,-58.58687 -3.3095,-37.56112 15.7164,-74.19826 15.7164,-95.27238 2.3595,-18.04135 -17.543,-39.64527 -19.2077,-52.95337 -10.8333,-9.16633 -6.5157,-13.49801 -18.4371,-21.24645 -8.4236,-5.47501 -14.5469,-14.134321 -23.2906,-16.778111 -18.0783,-5.33335 -39.1856,-5.05452 -54.0187,-5.47813 -6.5985,0.46386 -43.0346,5.53231 -47.4878,8.43321 -12.708,8.278031 -13.9218,33.503901 -8.5083,52.504171 -6.8936,89.43502 -8.5995,305.76811 -91.0522,430.36528 -22.3831,33.82403 -88.7496,50.622 -117.0586,69.79554 -17.9306,3.55614 -33.51546,3.68786 -46.33993,1.17974 -14.24534,-2.78601 -25.08473,-8.82921 -31.94987,-17.05428 -4.55686,-14.10117 -17.84247,-34.19962 -11.27744,-46.82541 8.18727,-8.29825 12.8676,-18 15.43146,-28.37767 4.59178,-18.58607 2.39482,-39.34022 1.39688,-58.08281 10.1251,-16.76074 15.5991,-36.74874 23.2265,-55.01588 9.2684,-22.19716 21.7997,-44.74928 26.4478,-65.81571 -0.2625,-15.93598 3.8718,-41.9916 4.6936,-58.2941 2.2955,-45.53524 2.8585,-81.67566 -4.7302,-122.34298 -2.5134,-2.52179 -5.0537,-5.03257 -7.6182,-7.52639 -11.6524,-11.53295 -22.2923,-31.74144 -46.9326,-38.70194 -25.9108,-7.31932 -52.031,-5.88842 -57.1241,-9.42083 -8.0723,-6.84027 -76.878,-17.00744 -82.8559,-24.7383 -10.7384,-13.50207 -27.5667,-26.918341 -42.126,-28.125101 -18.3285,-4.90579 -40.66353,-7.44402 -57.11233,-8.38859 -19.0572,-0.91337 -40.6244,2.26012 -56.9341,4.43538 -19.5489,2.7972 -38.25,10.71516 -54.408201,20.732561 -3.5728,2.37786 -6.8943,5.58286 -9.9285,10.08719 -10.8351,16.1183 -11.0468,43.93129 -3.8117,64.30369 15.4482,29.70743 43.283901,49.52122 67.438201,58.75401 z"
   id="path3789"
   inkscape:connector-curvature="0"
   sodipodi:nodetypes="cccsccccccssccccccscccsccscsccsccscscsccscscsccscccccccccc" /></svg>