<?xml version="1.0" encoding="UTF-8" standalone="no"?>
<svg
   xmlns:dc="http://purl.org/dc/elements/1.1/"
   xmlns:cc="http://creativecommons.org/ns#"
   xmlns:rdf="http://www.w3.org/1999/02/22-rdf-syntax-ns#"
   xmlns:svg="http://www.w3.org/2000/svg"
   xmlns="http://www.w3.org/2000/svg"
   xmlns:sodipodi="http://sodipodi.sourceforge.net/DTD/sodipodi-0.dtd"
   xmlns:inkscape="http://www.inkscape.org/namespaces/inkscape"
   version="1.1"
   id="Layer_1"
   x="0px"
   y="0px"
   width="1000"
   height="1024"
   viewBox="0 0 1000 1024"
   enable-background="new 0 0 512 512"
   xml:space="preserve"
   inkscape:version="0.48.0 r9654"
   sodipodi:docname="tavhebrew-x5ea.svg"><title
   id="title3743">Sinai 357</title><metadata
   id="metadata72"><rdf:RDF><cc:Work
       rdf:about=""><dc:format>image/svg+xml</dc:format><dc:type
         rdf:resource="http://purl.org/dc/dcmitype/StillImage" /><dc:title>Sinai 357</dc:title><dc:date>2017</dc:date><dc:creator><cc:Agent><dc:title>Celeste Claire Horner</dc:title></cc:Agent></dc:creator><dc:publisher><cc:Agent><dc:title>beitdina.net</dc:title></cc:Agent></dc:publisher></cc:Work></rdf:RDF></metadata><defs
   id="defs70" /><sodipodi:namedview
   pagecolor="#ffffff"
   bordercolor="#666666"
   borderopacity="1"
   objecttolerance="10"
   gridtolerance="10"
   guidetolerance="10"
   inkscape:pageopacity="0"
   inkscape:pageshadow="2"
   inkscape:window-width="1152"
   inkscape:window-height="814"
   id="namedview68"
   showgrid="false"
   inkscape:zoom="0.25488282"
   inkscape:cx="-52.973737"
   inkscape:cy="176.508"
   inkscape:window-x="-8"
   inkscape:window-y="-8"
   inkscape:window-maximized="1"
   inkscape:current-layer="Layer_1" />
   
	<g
   id="Grid"
   transform="matrix(1.9524943,0,0,2.0181509,2.4516249,-0.3169608)">
		<rect
   x="0"
   stroke-miterlimit="10"
   width="512"
   height="512"
   id="rect4"
   y="0"
   style="fill:none;stroke:#a9ccdb;stroke-miterlimit:10" />
		<line
   stroke-miterlimit="10"
   x1="0"
   y1="32"
   x2="512"
   y2="32"
   id="line6"
   style="fill:none;stroke:#a9ccdb;stroke-miterlimit:10" />
		<line
   stroke-miterlimit="10"
   x1="0"
   y1="64"
   x2="512"
   y2="64"
   id="line8"
   style="fill:none;stroke:#a9ccdb;stroke-miterlimit:10" />
		<line
   stroke-miterlimit="10"
   x1="0"
   y1="96"
   x2="512"
   y2="96"
   id="line10"
   style="fill:none;stroke:#a9ccdb;stroke-miterlimit:10" />
		<line
   stroke-miterlimit="10"
   x1="0"
   y1="128"
   x2="512"
   y2="128"
   id="line12"
   style="fill:none;stroke:#a9ccdb;stroke-miterlimit:10" />
		<line
   stroke-miterlimit="10"
   x1="0"
   y1="160"
   x2="512"
   y2="160"
   id="line14"
   style="fill:none;stroke:#a9ccdb;stroke-miterlimit:10" />
		<line
   stroke-miterlimit="10"
   x1="0"
   y1="192"
   x2="512"
   y2="192"
   id="line16"
   style="fill:none;stroke:#a9ccdb;stroke-miterlimit:10" />
		<line
   stroke-miterlimit="10"
   x1="0"
   y1="224"
   x2="512"
   y2="224"
   id="line18"
   style="fill:none;stroke:#a9ccdb;stroke-miterlimit:10" />
		<line
   stroke-miterlimit="10"
   x1="0"
   y1="256"
   x2="512"
   y2="256"
   id="line20"
   style="fill:none;stroke:#a9ccdb;stroke-miterlimit:10" />
		<line
   stroke-miterlimit="10"
   x1="0"
   y1="288"
   x2="512"
   y2="288"
   id="line22"
   style="fill:none;stroke:#a9ccdb;stroke-miterlimit:10" />
		<line
   stroke-miterlimit="10"
   x1="0"
   y1="320"
   x2="512"
   y2="320"
   id="line24"
   style="fill:none;stroke:#a9ccdb;stroke-miterlimit:10" />
		<line
   stroke-miterlimit="10"
   x1="0"
   y1="352"
   x2="512"
   y2="352"
   id="line26"
   style="fill:none;stroke:#a9ccdb;stroke-miterlimit:10" />
		<line
   stroke-miterlimit="10"
   x1="0"
   y1="384"
   x2="512"
   y2="384"
   id="line28"
   style="fill:none;stroke:#a9ccdb;stroke-miterlimit:10" />
		<line
   stroke-miterlimit="10"
   x1="0"
   y1="416"
   x2="512"
   y2="416"
   id="line30"
   style="fill:none;stroke:#a9ccdb;stroke-miterlimit:10" />
		<line
   stroke-miterlimit="10"
   x1="0"
   y1="448"
   x2="512"
   y2="448"
   id="line32"
   style="fill:none;stroke:#ff0000;stroke-miterlimit:10" />
		<line
   stroke-miterlimit="10"
   x1="0"
   y1="480"
   x2="512"
   y2="480"
   id="line34"
   style="fill:none;stroke:#a9ccdb;stroke-miterlimit:10" />
		<line
   stroke-miterlimit="10"
   x1="32"
   y1="0"
   x2="32"
   y2="512"
   id="line36"
   style="fill:none;stroke:#a9ccdb;stroke-miterlimit:10" />
		<line
   stroke-miterlimit="10"
   x1="64"
   y1="0"
   x2="64"
   y2="512"
   id="line38"
   style="fill:none;stroke:#a9ccdb;stroke-miterlimit:10" />
		<line
   stroke-miterlimit="10"
   x1="96"
   y1="0"
   x2="96"
   y2="512"
   id="line40"
   style="fill:none;stroke:#a9ccdb;stroke-miterlimit:10" />
		<line
   stroke-miterlimit="10"
   x1="128"
   y1="0"
   x2="128"
   y2="512"
   id="line42"
   style="fill:none;stroke:#a9ccdb;stroke-miterlimit:10" />
		<line
   stroke-miterlimit="10"
   x1="160"
   y1="0"
   x2="160"
   y2="512"
   id="line44"
   style="fill:none;stroke:#a9ccdb;stroke-miterlimit:10" />
		<line
   stroke-miterlimit="10"
   x1="192"
   y1="0"
   x2="192"
   y2="512"
   id="line46"
   style="fill:none;stroke:#a9ccdb;stroke-miterlimit:10" />
		<line
   stroke-miterlimit="10"
   x1="224"
   y1="0"
   x2="224"
   y2="512"
   id="line48"
   style="fill:none;stroke:#a9ccdb;stroke-miterlimit:10" />
		<line
   stroke-miterlimit="10"
   x1="256"
   y1="0"
   x2="256"
   y2="512"
   id="line50"
   style="fill:none;stroke:#a9ccdb;stroke-miterlimit:10" />
		<line
   stroke-miterlimit="10"
   x1="288"
   y1="0"
   x2="288"
   y2="512"
   id="line52"
   style="fill:none;stroke:#a9ccdb;stroke-miterlimit:10" />
		<line
   stroke-miterlimit="10"
   x1="320"
   y1="0"
   x2="320"
   y2="512"
   id="line54"
   style="fill:none;stroke:#a9ccdb;stroke-miterlimit:10" />
		<line
   stroke-miterlimit="10"
   x1="352"
   y1="0"
   x2="352"
   y2="512"
   id="line56"
   style="fill:none;stroke:#a9ccdb;stroke-miterlimit:10" />
		<line
   stroke-miterlimit="10"
   x1="384"
   y1="0"
   x2="384"
   y2="512"
   id="line58"
   style="fill:none;stroke:#a9ccdb;stroke-miterlimit:10" />
		<line
   stroke-miterlimit="10"
   x1="416"
   y1="0"
   x2="416"
   y2="512"
   id="line60"
   style="fill:none;stroke:#a9ccdb;stroke-miterlimit:10" />
		<line
   stroke-miterlimit="10"
   x1="448"
   y1="0"
   x2="448"
   y2="512"
   id="line62"
   style="fill:none;stroke:#a9ccdb;stroke-miterlimit:10" />
		<line
   stroke-miterlimit="10"
   x1="480"
   y1="0"
   x2="480"
   y2="512"
   id="line64"
   style="fill:none;stroke:#a9ccdb;stroke-miterlimit:10" />
	</g>

<path
   style="fill:#5746d0;fill-opacity:0.63913042"
   d="m 78.059843,137.53032 c 7.987224,28.83197 10.740792,46.03659 25.031287,58.35091 5.56147,4.7924 13.54662,9.52049 23.3412,12.97863 7.59177,1.85773 21.12794,4.81329 32.40772,5.6028 15.52072,4.63354 24.76333,-12.01359 31.27831,-12.99673 9.67783,0.80113 24.70225,-2.30551 31.73265,-0.33971 12.80797,0.1917 22.15401,2.76466 28.87877,8.19517 4.39246,3.54709 6.26064,9.15688 12.10967,13.19958 5.51918,3.54278 12.1397,7.90336 18.22767,12.76691 8.44397,6.74571 15.86343,14.45902 17.89877,22.29991 0.27779,9.77918 -9.28879,26.90307 -12.23071,36.87585 -5.58507,19.30209 -5.92586,40.33526 -8.78479,59.35988 -2.08577,13.72887 -4.57079,27.20002 -7.5562,40.45553 -2.39437,10.68387 -4.44173,21.37793 -6.3777,32.07254 -11.98247,27.75532 -11.43263,70.69291 -21.76844,88.41029 -12.72499,17.27659 -19.31187,33.3887 -26.1525,50.4457 -2.54101,5.7202 -9.82708,6.58241 -12.527,9.09479 -4.94068,52.89828 -42.6738,95.98156 -46.08499,145.59058 0.0926,2.50516 1.07981,9.1931 0.75161,10.6067 -0.28641,1.23337 -1.20094,3.73185 -3.55998,3.73185 -3.15464,-0.14033 -5.36392,2.97778 -5.419,5.13729 l -1.9328,5.76736 c -3.13515,32.71824 17.45809,63.03781 20.93975,100.22354 0.2227,3.61643 0.24991,7.16717 0.78438,10.52622 0.43554,2.73735 1.20794,5.3474 2.6975,7.76197 1.49679,1.52307 3.41967,3.73571 5.46225,6.07905 4.39595,5.04321 9.34632,10.69177 11.79693,11.37466 7.1341,5.77319 12.9784,11.80552 20.80986,15.07076 15.22568,5.11118 27.65914,6.71795 42.77088,6.40279 5.34332,0.15367 10.75233,0.0574 15.7236,-0.52617 -0.0345,-0.59597 0.0749,0.26233 -0.01,-0.32918 14.76422,-3.3879 27.1956,-15.89425 36.90142,-27.71472 3.1909,-3.95508 6.28201,-8.12911 9.1848,-12.39418 4.06271,-5.96934 23.95263,-11.15026 35.61045,-16.61331 5.26644,-2.86759 8.18207,-14.57308 6.35763,-18.23368 -1.74969,-3.28152 -3.66855,-6.33917 -3.51382,-9.08354 -0.0334,-1.66066 1.04345,-3.2053 2.42172,-4.2379 4.30867,-2.6571 5.60008,-6.23913 6.18022,-10.22902 1.0542,-7.25022 -1.36921,-15.84718 -0.29981,-22.68821 0.83437,-5.36008 -1.60627,-8.48258 0.67551,-9.43869 3.488,-0.56757 9.76419,-1.50016 14.69697,-0.58906 5.5679,0.95308 8.26635,-0.97294 10.22556,-3.86341 2.40646,-3.55032 3.69765,-8.55568 7.82105,-11.4681 10.54769,-7.19522 32.93664,-9.16077 44.50207,-6.47672 22.00536,5.89985 42.46885,18.40385 62.85897,28.7628 22.46354,12.38666 39.92912,15.49962 62.28977,16.10045 27.94756,-0.0681 43.31347,-1.38934 62.95651,19.01874 7.9932,8.37321 15.20829,17.41642 24.58605,22.4812 12.46434,4.67964 30.04068,13.03445 38.75541,4.35482 10.92347,-4.69721 18.7784,-11.87484 24.94718,-20.76192 7.209,-10.38566 12.11525,-23.10589 16.92503,-36.93021 6.14455,-19.58812 3.70875,-42.89155 1.40977,-68.64491 -1.19374,-13.43991 -1.43281,-26.09813 3.98372,-36.31885 5.93194,-8.66251 11.28471,-16.2026 14.03909,-25.4958 4.96984,-23.71942 6.53762,-44.88383 10.97658,-64.94733 4.8501,-21.92184 12.70012,-42.52937 21.56173,-63.71933 16.95024,-40.64492 30.09542,-91.17576 30.09542,-119.74146 0.54292,-31.36186 22.66127,-49.37419 22.66127,-80.66639 0.83485,-15.49508 14.49546,-20.8996 12.59259,-34.27185 -4.68968,-9.90338 -14.39543,-12.72662 -14.67023,-24.241 0.93298,-9.5437 -0.12426,-15.83484 -2.83366,-21.05308 -3.26154,-6.28163 -8.9172,-11.00855 -16.37728,-17.98297 -9.6121,-8.96199 -20.65216,-18.238 -31.3417,-25.39121 -11.17245,-7.47637 -20.02163,-10.18169 -31.68337,-10.23795 -6.62392,0.0884 -13.77065,2.08212 -24.5271,9.19369 -5.42725,3.61258 -10.4274,7.46326 -14.11481,12.3244 -17.72893,20.13094 -14.1567,32.10118 -14.92235,54.11074 -1.48951,15.78141 10.62424,13.42277 10.91942,22.3587 5.40659,13.03596 3.35011,26.95109 -0.66445,39.94045 -3.53845,21.94115 -8.14565,43.45621 -13.45209,64.65682 -6.1525,24.58084 -13.24499,48.73895 -20.70153,72.64832 -6.24755,20.03276 -12.75068,39.89091 -19.17061,59.67677 -6.37739,19.65473 -12.67269,39.23814 -18.55383,58.85053 -7.19916,24.09322 -13.56639,47.86573 -20.89475,69.89545 -3.27926,8.9263 -9.50024,22.60618 -14.74136,27.59879 -9.87951,9.41109 -21.28597,5.48457 -38.15465,3.90109 -34.43021,-7.51073 -82.30654,-17.94826 -121.59777,-35.67767 -33.20374,-14.98255 -60.27653,-35.17252 -67.9226,-63.2042 -5.64816,-29.03215 -6.31046,-48.28148 1.40283,-74.12151 5.53656,-18.50322 11.80577,-36.45192 17.86058,-54.16809 14.27238,-41.76049 27.35352,-82.22897 26.83966,-125.62277 -0.95701,-46.48846 -9.54674,-95.92122 -24.94398,-132.38023 -10.30962,-23.46075 -25.54921,-43.24243 -48.73732,-55.138 -18.6931,-3.91185 -44.32642,-15.69116 -54.34181,-16.81894 -10.55975,-1.0592 -6.90873,-10.25599 -17.26384,-12.94172 -7.16163,-1.01259 -14.13438,-2.29855 -20.99296,-3.79284 -23.18919,-5.05229 -39.67869,-11.995851 -63.14613,-19.298591 -7.97659,-2.48021 -21.17687,-17.94939 -28.67545,-24.93986 -9.35406,-6.99835 -24.81798,-8.58731 -35.06914,-11.39669 -6.41292,-1.57055 -9.29869,0.33904 -13.70208,0.39405 -4.21917,-0.48679 -3.53875,0.005 -3.50581,3.87317 0.0156,2.35819 -7.59929,2.5881 -9.47322,3.20333 -6.219482,2.04191 -10.532627,-1.49531 -21.293316,7.60493 -8.324498,8.04694 -12.898094,21.89183 -13.916319,32.160171 -0.328179,3.67502 -0.276793,7.16033 0.126212,10.25775 0.976601,7.50594 2.056348,14.69569 6.764938,14.8254 z"
   id="path3789"
   inkscape:connector-curvature="0"
   sodipodi:nodetypes="csccccscscccccccccsccccscsccccccsccccscccscccccccsccccscccccscsccccccsssccscsccscccccscccccsccscc" /></svg>