<?xml version="1.0" encoding="UTF-8" standalone="no"?>
<svg
   xmlns:dc="http://purl.org/dc/elements/1.1/"
   xmlns:cc="http://creativecommons.org/ns#"
   xmlns:rdf="http://www.w3.org/1999/02/22-rdf-syntax-ns#"
   xmlns:svg="http://www.w3.org/2000/svg"
   xmlns="http://www.w3.org/2000/svg"
   xmlns:sodipodi="http://sodipodi.sourceforge.net/DTD/sodipodi-0.dtd"
   xmlns:inkscape="http://www.inkscape.org/namespaces/inkscape"
   version="1.1"
   id="Layer_1"
   x="0px"
   y="0px"
   width="1000"
   height="1024"
   viewBox="0 0 1000 1024"
   enable-background="new 0 0 512 512"
   xml:space="preserve"
   inkscape:version="0.48.0 r9654"
   sodipodi:docname="tethebrew-x5d8.svg"><title
   id="title3743">Sinai 357</title><metadata
   id="metadata72"><rdf:RDF><cc:Work
       rdf:about=""><dc:format>image/svg+xml</dc:format><dc:type
         rdf:resource="http://purl.org/dc/dcmitype/StillImage" /><dc:title>Sinai 357</dc:title><dc:date>2017</dc:date><dc:creator><cc:Agent><dc:title>Celeste Claire Horner</dc:title></cc:Agent></dc:creator><dc:publisher><cc:Agent><dc:title>beitdina.net</dc:title></cc:Agent></dc:publisher></cc:Work></rdf:RDF></metadata><defs
   id="defs70" /><sodipodi:namedview
   pagecolor="#ffffff"
   bordercolor="#666666"
   borderopacity="1"
   objecttolerance="10"
   gridtolerance="10"
   guidetolerance="10"
   inkscape:pageopacity="0"
   inkscape:pageshadow="2"
   inkscape:window-width="1009"
   inkscape:window-height="737"
   id="namedview68"
   showgrid="false"
   inkscape:zoom="0.25488281"
   inkscape:cx="65.42733"
   inkscape:cy="772.55972"
   inkscape:window-x="94"
   inkscape:window-y="-1"
   inkscape:window-maximized="0"
   inkscape:current-layer="Layer_1" />
   
	<g
   id="Grid"
   transform="matrix(1.9453526,0,0,1.9917408,-2.3030789,4.5522104)">
		<rect
   x="0"
   stroke-miterlimit="10"
   width="512"
   height="512"
   id="rect4"
   y="0"
   style="fill:none;stroke:#a9ccdb;stroke-miterlimit:10" />
		<line
   stroke-miterlimit="10"
   x1="0"
   y1="32"
   x2="512"
   y2="32"
   id="line6"
   style="fill:none;stroke:#a9ccdb;stroke-miterlimit:10" />
		<line
   stroke-miterlimit="10"
   x1="0"
   y1="64"
   x2="512"
   y2="64"
   id="line8"
   style="fill:none;stroke:#a9ccdb;stroke-miterlimit:10" />
		<line
   stroke-miterlimit="10"
   x1="0"
   y1="96"
   x2="512"
   y2="96"
   id="line10"
   style="fill:none;stroke:#a9ccdb;stroke-miterlimit:10" />
		<line
   stroke-miterlimit="10"
   x1="0"
   y1="128"
   x2="512"
   y2="128"
   id="line12"
   style="fill:none;stroke:#a9ccdb;stroke-miterlimit:10" />
		<line
   stroke-miterlimit="10"
   x1="0"
   y1="160"
   x2="512"
   y2="160"
   id="line14"
   style="fill:none;stroke:#a9ccdb;stroke-miterlimit:10" />
		<line
   stroke-miterlimit="10"
   x1="0"
   y1="192"
   x2="512"
   y2="192"
   id="line16"
   style="fill:none;stroke:#a9ccdb;stroke-miterlimit:10" />
		<line
   stroke-miterlimit="10"
   x1="0"
   y1="224"
   x2="512"
   y2="224"
   id="line18"
   style="fill:none;stroke:#a9ccdb;stroke-miterlimit:10" />
		<line
   stroke-miterlimit="10"
   x1="0"
   y1="256"
   x2="512"
   y2="256"
   id="line20"
   style="fill:none;stroke:#a9ccdb;stroke-miterlimit:10" />
		<line
   stroke-miterlimit="10"
   x1="0"
   y1="288"
   x2="512"
   y2="288"
   id="line22"
   style="fill:none;stroke:#a9ccdb;stroke-miterlimit:10" />
		<line
   stroke-miterlimit="10"
   x1="0"
   y1="320"
   x2="512"
   y2="320"
   id="line24"
   style="fill:none;stroke:#a9ccdb;stroke-miterlimit:10" />
		<line
   stroke-miterlimit="10"
   x1="0"
   y1="352"
   x2="512"
   y2="352"
   id="line26"
   style="fill:none;stroke:#a9ccdb;stroke-miterlimit:10" />
		<line
   stroke-miterlimit="10"
   x1="0"
   y1="384"
   x2="512"
   y2="384"
   id="line28"
   style="fill:none;stroke:#a9ccdb;stroke-miterlimit:10" />
		<line
   stroke-miterlimit="10"
   x1="0"
   y1="416"
   x2="512"
   y2="416"
   id="line30"
   style="fill:none;stroke:#a9ccdb;stroke-miterlimit:10" />
		<line
   stroke-miterlimit="10"
   x1="0"
   y1="448"
   x2="512"
   y2="448"
   id="line32"
   style="fill:none;stroke:#ff0000;stroke-miterlimit:10" />
		<line
   stroke-miterlimit="10"
   x1="0"
   y1="480"
   x2="512"
   y2="480"
   id="line34"
   style="fill:none;stroke:#a9ccdb;stroke-miterlimit:10" />
		<line
   stroke-miterlimit="10"
   x1="32"
   y1="0"
   x2="32"
   y2="512"
   id="line36"
   style="fill:none;stroke:#a9ccdb;stroke-miterlimit:10" />
		<line
   stroke-miterlimit="10"
   x1="64"
   y1="0"
   x2="64"
   y2="512"
   id="line38"
   style="fill:none;stroke:#a9ccdb;stroke-miterlimit:10" />
		<line
   stroke-miterlimit="10"
   x1="96"
   y1="0"
   x2="96"
   y2="512"
   id="line40"
   style="fill:none;stroke:#a9ccdb;stroke-miterlimit:10" />
		<line
   stroke-miterlimit="10"
   x1="128"
   y1="0"
   x2="128"
   y2="512"
   id="line42"
   style="fill:none;stroke:#a9ccdb;stroke-miterlimit:10" />
		<line
   stroke-miterlimit="10"
   x1="160"
   y1="0"
   x2="160"
   y2="512"
   id="line44"
   style="fill:none;stroke:#a9ccdb;stroke-miterlimit:10" />
		<line
   stroke-miterlimit="10"
   x1="192"
   y1="0"
   x2="192"
   y2="512"
   id="line46"
   style="fill:none;stroke:#a9ccdb;stroke-miterlimit:10" />
		<line
   stroke-miterlimit="10"
   x1="224"
   y1="0"
   x2="224"
   y2="512"
   id="line48"
   style="fill:none;stroke:#a9ccdb;stroke-miterlimit:10" />
		<line
   stroke-miterlimit="10"
   x1="256"
   y1="0"
   x2="256"
   y2="512"
   id="line50"
   style="fill:none;stroke:#a9ccdb;stroke-miterlimit:10" />
		<line
   stroke-miterlimit="10"
   x1="288"
   y1="0"
   x2="288"
   y2="512"
   id="line52"
   style="fill:none;stroke:#a9ccdb;stroke-miterlimit:10" />
		<line
   stroke-miterlimit="10"
   x1="320"
   y1="0"
   x2="320"
   y2="512"
   id="line54"
   style="fill:none;stroke:#a9ccdb;stroke-miterlimit:10" />
		<line
   stroke-miterlimit="10"
   x1="352"
   y1="0"
   x2="352"
   y2="512"
   id="line56"
   style="fill:none;stroke:#a9ccdb;stroke-miterlimit:10" />
		<line
   stroke-miterlimit="10"
   x1="384"
   y1="0"
   x2="384"
   y2="512"
   id="line58"
   style="fill:none;stroke:#a9ccdb;stroke-miterlimit:10" />
		<line
   stroke-miterlimit="10"
   x1="416"
   y1="0"
   x2="416"
   y2="512"
   id="line60"
   style="fill:none;stroke:#a9ccdb;stroke-miterlimit:10" />
		<line
   stroke-miterlimit="10"
   x1="448"
   y1="0"
   x2="448"
   y2="512"
   id="line62"
   style="fill:none;stroke:#a9ccdb;stroke-miterlimit:10" />
		<line
   stroke-miterlimit="10"
   x1="480"
   y1="0"
   x2="480"
   y2="512"
   id="line64"
   style="fill:none;stroke:#a9ccdb;stroke-miterlimit:10" />
	</g>
	
<path
   sodipodi:nodetypes="csssscccccsscccscccssscccccscssscsscsscscsccccsccsccccccsc"
   inkscape:connector-curvature="0"
   id="path3783"
   d="m 81.798257,351.67439 c 1.23974,51.12156 -13.528721,113.62299 -15.320454,177.62679 -0.644711,23.03019 15.627018,36.37601 15.937288,60.87123 0.16475,13.00657 -16.123114,37.12489 -15.510842,49.95739 1.841612,38.59803 17.08428,56.06786 25.216586,85.70772 7.35435,26.80444 6.87208,67.09961 21.991505,77.94793 7.52965,2.86159 35.191,28.52941 48.74552,29.16482 37.81954,-4.15538 28.90229,9.35865 54.9026,5.51284 25.69648,-3.4652 28.53822,-16.06418 30.2763,-28.9235 4.40705,-31.786 2.76018,-5.29296 2.69878,-33.23434 -1.37831,-2.3351 -13.71385,-26.13039 -19.94436,-33.236 -6.84487,-7.80632 -3.99146,-14.31412 -2.59348,-20.41961 3.82515,-16.7069 9.29171,-13.81066 3.7843,-20.37002 -3.65567,-4.52649 18.40468,-43.69381 12.81583,-43.69381 l -0.47369,-24.42316 c 3.96615,-18.48919 -30.40506,-14.19869 -33.96419,-35.63067 -3.98621,-24.00374 18.29951,-52.26354 17.31449,-80.35424 -1.7447,-52.67029 -27.88871,-180.05375 18.4915,-206.97215 20.43301,-10.23269 141.70771,1.46499 173.54374,7.61187 15.35712,8.58669 42.67786,7.53448 59.28533,14.11502 22.71235,8.99954 44.47672,16.3755 65.2122,23.96049 20.9455,7.66182 40.84117,15.53694 59.60359,25.51424 16.26528,8.6494 31.67889,18.87864 46.18651,31.91835 12.73559,7.84021 28.47247,14.81183 32.65517,22.88548 -6.36814,37.13333 4.50066,84.03186 -7.37866,118.57657 -21.88372,25.50319 -33.74203,11.51628 -44.1814,43.43537 -3.95319,12.06615 -9.1528,26.39502 -21.2964,28.06831 -29.48403,1.16193 -56.88657,-8.38995 -80.89757,-21.98507 -17.76034,-10.05597 -33.66511,-22.32409 -47.18413,-34.10483 -10.47723,-9.11574 -22.48755,-19.30599 -34.77051,-29.30647 -8.15562,-6.6401 -16.43145,-13.19655 -24.4585,-19.29925 -10.50971,-7.99018 -20.59298,-15.20254 -29.42169,-20.80645 -12.71885,-8.07314 -22.83399,-12.80812 -27.86945,-11.72146 -24.44858,8.91908 -42.94663,24.66345 -50.72024,40.30367 -7.77157,15.63627 -18.69359,39.49037 -15.07572,54.39112 3.65604,15.05832 3.45845,25.4548 13.3294,34.57019 3.91118,3.75588 4.83853,8.48781 18.27932,22.09218 5.19668,5.25992 12.26394,11.84615 22.09748,20.21507 8.18429,6.9653 17.39127,14.59688 27.13943,22.52283 7.44421,6.48317 15.11212,12.92492 22.96914,19.1951 41.90062,33.43821 89.1791,61.99698 136.58612,65.93601 21.0334,-1.76398 48.37521,0.7709 69.7879,1.32577 23.04415,0.59714 37.32472,-3.43434 58.06555,-1.90786 25.14076,1.81607 52.43071,5.09871 74.34097,-2.71988 24.18392,-12.54264 35.98944,-35.94962 54.96075,-55.06512 12.77487,-26.87341 41.87343,-50.35428 50.2299,-75.82361 5.09004,-18.381 5.98797,-38.35611 5.75865,-58.72395 -0.2185,-19.40703 1.31383,-39.17062 1.69979,-58.2515 6.45649,-34.92139 -5.7922,-49.37886 -19.02735,-75.49627 -3.87766,-7.86216 -3.32552,-14.39756 -2.25275,-21.34729 3.02113,-19.57184 19.35005,-15.6464 20.75799,-41.95721 -0.32097,-13.92982 1.71702,-54.48733 0.3238,-65.39028 -4.52591,-30.99979 -16.99144,-50.77307 -36.12472,-64.43204 -16.80995,-17.02491 -45.24339,-30.69013 -64.09538,-35.69508 -143.1931,-9.60731 -325.02727,-15.91628 -444.3249,-48.68395 -39.71987,-7.18349 -82.28882,-3.23739 -123.4895,0.84687 -52.658,4.05546 -78.32098,17.58248 -93.541985,45.29081 -19.050868,34.68023 -11.849458,91.2069 -11.069558,140.41103 z"
   style="fill:#8e6742" /></svg>