<?xml version="1.0" encoding="UTF-8" standalone="no"?>
<svg
   xmlns:dc="http://purl.org/dc/elements/1.1/"
   xmlns:cc="http://creativecommons.org/ns#"
   xmlns:rdf="http://www.w3.org/1999/02/22-rdf-syntax-ns#"
   xmlns:svg="http://www.w3.org/2000/svg"
   xmlns="http://www.w3.org/2000/svg"
   xmlns:sodipodi="http://sodipodi.sourceforge.net/DTD/sodipodi-0.dtd"
   xmlns:inkscape="http://www.inkscape.org/namespaces/inkscape"
   version="1.1"
   id="Layer_1"
   x="0px"
   y="0px"
   width="800"
   height="1024"
   viewBox="0 0 800 1024"
   enable-background="new 0 0 512 512"
   xml:space="preserve"
   inkscape:version="0.48.0 r9654"
   sodipodi:docname="tsadihebrew-x5e6.svg"><title
   id="title3743">Sinai 357</title><metadata
   id="metadata72"><rdf:RDF><cc:Work
       rdf:about=""><dc:format>image/svg+xml</dc:format><dc:type
         rdf:resource="http://purl.org/dc/dcmitype/StillImage" /><dc:title>Sinai 357</dc:title><dc:date>2017</dc:date><dc:creator><cc:Agent><dc:title>Celeste Claire Horner</dc:title></cc:Agent></dc:creator><dc:publisher><cc:Agent><dc:title>beitdina.net</dc:title></cc:Agent></dc:publisher></cc:Work></rdf:RDF></metadata><defs
   id="defs70" /><sodipodi:namedview
   pagecolor="#ffffff"
   bordercolor="#666666"
   borderopacity="1"
   objecttolerance="10"
   gridtolerance="10"
   guidetolerance="10"
   inkscape:pageopacity="0"
   inkscape:pageshadow="2"
   inkscape:window-width="1152"
   inkscape:window-height="814"
   id="namedview68"
   showgrid="false"
   inkscape:zoom="0.25488281"
   inkscape:cx="118.00219"
   inkscape:cy="590.82339"
   inkscape:window-x="-8"
   inkscape:window-y="-8"
   inkscape:window-maximized="1"
   inkscape:current-layer="Layer_1" />
   
	<g
   id="Grid"
   transform="matrix(1.561992,0,0,2.0004578,0.50019527,4.8138064)">
		<rect
   x="0"
   stroke-miterlimit="10"
   width="512"
   height="512"
   id="rect4"
   y="0"
   style="fill:none;stroke:#a9ccdb;stroke-miterlimit:10" />
		<line
   stroke-miterlimit="10"
   x1="0"
   y1="32"
   x2="512"
   y2="32"
   id="line6"
   style="fill:none;stroke:#a9ccdb;stroke-miterlimit:10" />
		<line
   stroke-miterlimit="10"
   x1="0"
   y1="64"
   x2="512"
   y2="64"
   id="line8"
   style="fill:none;stroke:#a9ccdb;stroke-miterlimit:10" />
		<line
   stroke-miterlimit="10"
   x1="0"
   y1="96"
   x2="512"
   y2="96"
   id="line10"
   style="fill:none;stroke:#a9ccdb;stroke-miterlimit:10" />
		<line
   stroke-miterlimit="10"
   x1="0"
   y1="128"
   x2="512"
   y2="128"
   id="line12"
   style="fill:none;stroke:#a9ccdb;stroke-miterlimit:10" />
		<line
   stroke-miterlimit="10"
   x1="0"
   y1="160"
   x2="512"
   y2="160"
   id="line14"
   style="fill:none;stroke:#a9ccdb;stroke-miterlimit:10" />
		<line
   stroke-miterlimit="10"
   x1="0"
   y1="192"
   x2="512"
   y2="192"
   id="line16"
   style="fill:none;stroke:#a9ccdb;stroke-miterlimit:10" />
		<line
   stroke-miterlimit="10"
   x1="0"
   y1="224"
   x2="512"
   y2="224"
   id="line18"
   style="fill:none;stroke:#a9ccdb;stroke-miterlimit:10" />
		<line
   stroke-miterlimit="10"
   x1="0"
   y1="256"
   x2="512"
   y2="256"
   id="line20"
   style="fill:none;stroke:#a9ccdb;stroke-miterlimit:10" />
		<line
   stroke-miterlimit="10"
   x1="0"
   y1="288"
   x2="512"
   y2="288"
   id="line22"
   style="fill:none;stroke:#a9ccdb;stroke-miterlimit:10" />
		<line
   stroke-miterlimit="10"
   x1="0"
   y1="320"
   x2="512"
   y2="320"
   id="line24"
   style="fill:none;stroke:#a9ccdb;stroke-miterlimit:10" />
		<line
   stroke-miterlimit="10"
   x1="0"
   y1="352"
   x2="512"
   y2="352"
   id="line26"
   style="fill:none;stroke:#a9ccdb;stroke-miterlimit:10" />
		<line
   stroke-miterlimit="10"
   x1="0"
   y1="384"
   x2="512"
   y2="384"
   id="line28"
   style="fill:none;stroke:#a9ccdb;stroke-miterlimit:10" />
		<line
   stroke-miterlimit="10"
   x1="0"
   y1="416"
   x2="512"
   y2="416"
   id="line30"
   style="fill:none;stroke:#a9ccdb;stroke-miterlimit:10" />
		<line
   stroke-miterlimit="10"
   x1="0"
   y1="448"
   x2="512"
   y2="448"
   id="line32"
   style="fill:none;stroke:#ff0000;stroke-miterlimit:10" />
		<line
   stroke-miterlimit="10"
   x1="0"
   y1="480"
   x2="512"
   y2="480"
   id="line34"
   style="fill:none;stroke:#a9ccdb;stroke-miterlimit:10" />
		<line
   stroke-miterlimit="10"
   x1="32"
   y1="0"
   x2="32"
   y2="512"
   id="line36"
   style="fill:none;stroke:#a9ccdb;stroke-miterlimit:10" />
		<line
   stroke-miterlimit="10"
   x1="64"
   y1="0"
   x2="64"
   y2="512"
   id="line38"
   style="fill:none;stroke:#a9ccdb;stroke-miterlimit:10" />
		<line
   stroke-miterlimit="10"
   x1="96"
   y1="0"
   x2="96"
   y2="512"
   id="line40"
   style="fill:none;stroke:#a9ccdb;stroke-miterlimit:10" />
		<line
   stroke-miterlimit="10"
   x1="128"
   y1="0"
   x2="128"
   y2="512"
   id="line42"
   style="fill:none;stroke:#a9ccdb;stroke-miterlimit:10" />
		<line
   stroke-miterlimit="10"
   x1="160"
   y1="0"
   x2="160"
   y2="512"
   id="line44"
   style="fill:none;stroke:#a9ccdb;stroke-miterlimit:10" />
		<line
   stroke-miterlimit="10"
   x1="192"
   y1="0"
   x2="192"
   y2="512"
   id="line46"
   style="fill:none;stroke:#a9ccdb;stroke-miterlimit:10" />
		<line
   stroke-miterlimit="10"
   x1="224"
   y1="0"
   x2="224"
   y2="512"
   id="line48"
   style="fill:none;stroke:#a9ccdb;stroke-miterlimit:10" />
		<line
   stroke-miterlimit="10"
   x1="256"
   y1="0"
   x2="256"
   y2="512"
   id="line50"
   style="fill:none;stroke:#a9ccdb;stroke-miterlimit:10" />
		<line
   stroke-miterlimit="10"
   x1="288"
   y1="0"
   x2="288"
   y2="512"
   id="line52"
   style="fill:none;stroke:#a9ccdb;stroke-miterlimit:10" />
		<line
   stroke-miterlimit="10"
   x1="320"
   y1="0"
   x2="320"
   y2="512"
   id="line54"
   style="fill:none;stroke:#a9ccdb;stroke-miterlimit:10" />
		<line
   stroke-miterlimit="10"
   x1="352"
   y1="0"
   x2="352"
   y2="512"
   id="line56"
   style="fill:none;stroke:#a9ccdb;stroke-miterlimit:10" />
		<line
   stroke-miterlimit="10"
   x1="384"
   y1="0"
   x2="384"
   y2="512"
   id="line58"
   style="fill:none;stroke:#a9ccdb;stroke-miterlimit:10" />
		<line
   stroke-miterlimit="10"
   x1="416"
   y1="0"
   x2="416"
   y2="512"
   id="line60"
   style="fill:none;stroke:#a9ccdb;stroke-miterlimit:10" />
		<line
   stroke-miterlimit="10"
   x1="448"
   y1="0"
   x2="448"
   y2="512"
   id="line62"
   style="fill:none;stroke:#a9ccdb;stroke-miterlimit:10" />
		<line
   stroke-miterlimit="10"
   x1="480"
   y1="0"
   x2="480"
   y2="512"
   id="line64"
   style="fill:none;stroke:#a9ccdb;stroke-miterlimit:10" />
	</g>
	



	 
<path
   style="fill:#000000;fill-opacity:1"
   d="m 195.33042,251.53051 c -20.4222,-23.5711 -73.94667,-35.68313 -98.653203,-47.05874 -4.26547,-1.97288 -6.04633,-1.82041 -12.7615,-4.55237 -7.74267,-4.20487 -26.60206,-2.34155 -30.30267,0.86713 -2.21289,4.70359 -1.32217,16.55532 0.586,28.49797 2.08339,13.03948 5.37971,26.18731 7.17364,30.25768 7.8016,17.9197 22.32481,26.74148 35.02332,36.13914 44.851703,39.00094 95.948913,93.38682 128.269313,119.94081 5.1379,4.47243 23.4847,21.98919 28.6307,28.73375 6.6505,8.71659 9.836,17.75654 4.2525,24.88581 -16.9645,22.82801 -16.9566,56.85564 -28.7743,77.92462 -10.8735,19.12436 -20.5416,38.98769 -31.6592,55.93656 -13.4676,17.77531 -24.5051,30.50397 -41.6321,39.96551 -16.39353,8.37093 -31.96958,40.69958 -36.99183,54.25849 -7.79761,21.64022 -11.89883,46.40466 -9.41137,65.7756 -0.0329,22.69964 3.805,45.69537 17.51043,63.98721 7.53529,8.53699 21.21507,15.07563 34.90357,18.55001 11.7556,2.57686 21.3817,2.67266 29.8946,0.33822 9.8949,-2.7134 18.2858,-8.71009 26.7687,-17.91025 2.3625,-2.64498 4.7048,-5.57671 7.1112,-8.73173 12.616,-16.8866 24.8381,-35.69309 34.0155,-55.25848 9.6336,-20.53795 15.9125,-41.91212 15.7707,-62.77964 -0.3635,-10.24591 0.3988,-15.0798 -0.5287,-21.99953 -0.353,-2.63423 -0.1617,-6.4288 0.1583,-10.81048 5.4366,-16.74533 9.5604,-44.31247 16.1665,-64.5527 4.9321,-15.11126 10.9973,-24.38504 21.3782,-31.48943 14.9619,-6.09245 27.9746,-10.73971 40.131,-10.78107 12.0096,-0.0409 23.2107,4.45435 30.2106,9.86324 19.171,16.21092 42.9836,43.1298 51.2983,63.88448 8.3972,20.96052 8.5481,43.13807 6.3544,64.31058 -0.9504,9.08522 -1.6825,18.13673 -2.515,27.03506 -1.0351,12.88587 -2.9097,24.003 -4.673,35.56081 -1.1286,7.43688 -1.7095,14.56788 -0.031,21.9262 0.2618,7.83418 4.0339,14.78999 9.7122,21.01142 10.1723,11.14533 26.4619,19.93381 39.6462,27.19322 20.9106,9.66028 44.9184,29.80229 65.0607,32.72163 22.1768,2.33272 35.3438,-17.68164 42.6256,-37.13823 10.6209,-22.89885 6.9844,-45.49848 1.4609,-67.00654 -5.6013,-21.81146 -13.1433,-42.50033 -9.7244,-61.24024 3.6238,-11.40208 3.0731,-21.38471 1.006,-26.99646 -4.8265,-16.39189 -10.8968,-27.16293 -22.5722,-37.03086 -6.1618,-4.46806 -11.3431,-8.64297 -16.0323,-12.61786 -22.9215,-20.09908 -43.3747,-33.478 -62.5051,-50.91273 -19.8465,-18.03258 -48.4209,-45.70248 -63.0733,-68.97522 -13.6929,-18.05211 -2.2046,-42.1815 -12.4266,-58.90287 -38.4748,-36.09721 -76.9846,-78.8682 -117.1046,-109.30291 -6.1514,-5.42184 -12.2853,-10.59912 -18.3757,-15.64253 -26.679,-22.0927 -52.525,-41.61642 -75.371,-67.87428 z"
   id="path3841"
   inkscape:connector-curvature="0"
   sodipodi:nodetypes="ccccscccsccccccccsccscscscscsccccscccsccccccccsc" /></svg>